<svg width="300" height="300" viewBox="0 0 300 300" fill="none" xmlns="http://www.w3.org/2000/svg">
<g clip-path="url(#clip0)">
<path fill-rule="evenodd" clip-rule="evenodd" d="M33.0339 62.5898C8.43187 80.1728 -0.248868 112.569 12.2654 140.097C41.484 204.371 93.4142 257.966 160.806 288.412C188.35 300.856 220.749 292.199 238.3 267.579C258.188 239.68 273.504 207.835 282.885 172.825C292.658 136.351 295.135 99.6318 291.208 64.2004C287.9 34.353 264.128 11.0768 234.24 8.26152C161.212 1.38267 90.0611 21.8326 33.0339 62.5898Z" fill="url(#paint0_linear)"/>
<path d="M23.6448 134.924C51.6438 196.515 101.4 247.858 165.952 277.021C188.084 287.019 214.053 280.058 228.121 260.324C247.157 233.621 261.822 203.134 270.811 169.59C280.174 134.643 282.543 99.489 278.784 65.5773C276.132 41.6479 257.084 22.9686 233.068 20.7064C163.117 14.1175 94.9492 33.7034 40.3021 72.7595C20.5613 86.8682 13.6033 112.835 23.6448 134.924Z" stroke="white" stroke-opacity="0.2" stroke-width="25"/>
<path d="M205.474 91.3468H122.553C117.686 91.3468 113.732 95.2816 113.732 100.145C113.732 105.009 117.686 108.943 122.553 108.943H205.474C207.407 108.943 208.974 107.376 208.974 105.443V94.8468C208.974 92.9138 207.407 91.3468 205.474 91.3468ZM205.474 135.136H144.515C127.519 135.136 113.732 148.874 113.732 165.829C113.732 182.785 127.519 196.522 144.515 196.522H205.474C207.407 196.522 208.974 194.955 208.974 193.022V182.426C208.974 180.493 207.407 178.926 205.474 178.926H144.515C137.253 178.926 131.374 173.058 131.374 165.829C131.374 158.601 137.253 152.733 144.515 152.733H205.474C207.407 152.733 208.974 151.166 208.974 149.233V138.636C208.974 136.703 207.407 135.136 205.474 135.136Z" fill="white" stroke="white" stroke-width="3"/>
</g>
<defs>
<linearGradient id="paint0_linear" x1="45.5732" y1="43.0065" x2="296.722" y2="194.367" gradientUnits="userSpaceOnUse">
<stop stop-color="#24D7FE"/>
<stop offset="1" stop-color="#4058FF"/>
</linearGradient>
<clipPath id="clip0">
<rect width="300" height="300" fill="white"/>
</clipPath>
</defs>
</svg>
