<svg width="101" height="25" viewBox="0 0 101 25" fill="none" xmlns="http://www.w3.org/2000/svg">
<path fill-rule="evenodd" clip-rule="evenodd" d="M2.62702 5.18519C0.58351 6.64568 -0.137536 9.33659 0.901933 11.6232C3.32891 16.9619 7.64238 21.4137 13.2401 23.9426C15.528 24.9762 18.2191 24.2572 19.6769 22.2122C21.329 19.8948 22.6011 17.2496 23.3803 14.3416C24.1921 11.312 24.3978 8.262 24.0717 5.31897C23.7969 2.83977 21.8223 0.90638 19.3397 0.672533C13.2738 0.101157 7.36386 1.79978 2.62702 5.18519ZM17.9524 8.57406V6.44466H9.26783C8.6796 6.44466 8.20092 6.92033 8.20092 7.50936C8.20092 8.09839 8.6796 8.57406 9.26783 8.57406H17.9524ZM17.9524 12.8727V10.7433H11.4238C9.64485 10.7433 8.20092 12.1812 8.20092 13.9572C8.20092 15.7333 9.64485 17.1712 11.4238 17.1712H17.9524V15.0418H11.4238C10.8213 15.0418 10.3347 14.5552 10.3347 13.9572C10.3347 13.3593 10.8213 12.8727 11.4238 12.8727H17.9524Z" fill="url(#paint0_linear)"/>
<path d="M39.6957 12.7505H32.7148C32.9288 14.168 33.7512 14.8768 35.1822 14.8768C35.7706 14.8768 36.2788 14.7765 36.7067 14.5759C37.1481 14.3753 37.576 14.041 37.9906 13.5729L39.3747 14.8969C38.9869 15.5388 38.3985 16.0537 37.6095 16.4415C36.8338 16.8294 35.9779 17.0233 35.0418 17.0233C33.4771 17.0233 32.2601 16.5686 31.3908 15.6592C30.5215 14.7364 30.0869 13.4659 30.0869 11.8478C30.0869 10.2162 30.5215 8.93236 31.3908 7.99622C32.2735 7.06009 33.4838 6.59202 35.0217 6.59202C36.4928 6.59202 37.6362 7.0534 38.452 7.97616C39.2811 8.89893 39.6957 10.1828 39.6957 11.8277V12.7505ZM37.1882 10.8849C37.1882 10.2028 36.9876 9.6679 36.5864 9.28007C36.1986 8.87887 35.6569 8.67827 34.9615 8.67827C34.333 8.67827 33.8248 8.88555 33.437 9.30013C33.0491 9.70133 32.8017 10.2697 32.6947 11.0052H37.1882V10.8849Z" fill="#070F1A"/>
<path d="M41.2602 9.44055C41.2602 8.22357 41.2335 7.34093 41.18 6.79262H43.5872C43.6541 7.3543 43.6875 7.93604 43.6875 8.53785H43.7477C43.9884 7.94942 44.4097 7.48135 45.0115 7.13364C45.6266 6.77256 46.3087 6.59202 47.0576 6.59202C48.2077 6.59202 49.077 6.97985 49.6654 7.7555C50.2538 8.53116 50.5481 9.67459 50.5481 11.1858V16.8227H48.0004V11.1657C48.0004 10.2964 47.86 9.66121 47.5792 9.26001C47.2983 8.85881 46.8503 8.65821 46.2351 8.65821C45.5263 8.65821 44.9446 8.9123 44.4899 9.42049C44.0486 9.91531 43.8279 10.5572 43.8279 11.3463V16.8227H41.2602V9.44055Z" fill="#070F1A"/>
<path d="M54.349 5.62913C53.8542 5.62913 53.4596 5.4954 53.1654 5.22793C52.8712 4.94709 52.7241 4.57932 52.7241 4.12462C52.7241 3.66993 52.8712 3.30885 53.1654 3.04138C53.4596 2.76054 53.8542 2.62012 54.349 2.62012C54.8438 2.62012 55.2383 2.76054 55.5325 3.04138C55.8401 3.30885 55.9939 3.66993 55.9939 4.12462C55.9939 4.57932 55.8468 4.94709 55.5526 5.22793C55.2584 5.4954 54.8572 5.62913 54.349 5.62913ZM53.0852 6.79262H55.6328V16.8227H53.0852V6.79262Z" fill="#070F1A"/>
<path d="M67.2564 6.79262V16.4215C67.2564 18.1199 66.8351 19.397 65.9926 20.2529C65.1501 21.1222 63.8997 21.5569 62.2414 21.5569C61.4657 21.5569 60.7302 21.4632 60.0348 21.276C59.3527 21.0888 58.7442 20.8213 58.2093 20.4736L59.0719 18.7284C59.5533 18.9691 60.0615 19.1563 60.5964 19.2901C61.1314 19.4372 61.6396 19.5107 62.121 19.5107C63.0304 19.5107 63.7058 19.2232 64.1471 18.6481C64.5884 18.0865 64.8091 17.2306 64.8091 16.0804V15.7595C64.5416 16.1206 64.1738 16.4014 63.7058 16.602C63.2377 16.7892 62.6827 16.8828 62.0408 16.8828C60.6499 16.8828 59.5667 16.4282 58.791 15.5188C58.0288 14.6094 57.6476 13.3255 57.6476 11.6672C57.6476 10.0624 58.0154 8.81869 58.7509 7.93604C59.4865 7.04003 60.5229 6.59202 61.8602 6.59202C63.2511 6.59202 64.2608 7.08015 64.8893 8.0564H64.9294L65.13 6.79262H67.2564ZM64.7088 11.1858C64.7088 10.3165 64.5215 9.65453 64.1471 9.19983C63.7726 8.73176 63.231 8.49773 62.5222 8.49773C61.7733 8.49773 61.1983 8.77857 60.797 9.34025C60.3958 9.88856 60.1952 10.6843 60.1952 11.7274C60.1952 12.7705 60.3892 13.5596 60.777 14.0945C61.1782 14.6294 61.7599 14.8969 62.5222 14.8969C63.231 14.8969 63.7726 14.6896 64.1471 14.275C64.5215 13.8471 64.7088 13.2453 64.7088 12.4696V11.1858Z" fill="#070F1A"/>
<path d="M69.196 9.46061C69.196 8.12327 69.1692 7.23394 69.1157 6.79262H71.3625C71.4293 7.32755 71.4628 7.9093 71.4628 8.53785H71.5029C71.7169 7.93604 72.1047 7.46129 72.6664 7.11358C73.228 6.76587 73.8833 6.59202 74.6323 6.59202C75.3544 6.59202 75.9696 6.7525 76.4778 7.07346C76.986 7.38105 77.327 7.809 77.5008 8.35731C77.7683 7.809 78.1762 7.38105 78.7245 7.07346C79.2728 6.7525 79.888 6.59202 80.57 6.59202C81.68 6.59202 82.5493 6.9531 83.1779 7.67526C83.8198 8.38405 84.1407 9.367 84.1407 10.6241V16.8227H81.5931V10.9049C81.5931 10.1961 81.4393 9.64784 81.1317 9.26001C80.8241 8.85881 80.4029 8.65821 79.8679 8.65821C79.2795 8.65821 78.8047 8.8655 78.4437 9.28007C78.096 9.68127 77.9221 10.2296 77.9221 10.925V16.8227H75.3945V10.9852C75.3945 10.2496 75.2474 9.68127 74.9532 9.28007C74.659 8.8655 74.2444 8.65821 73.7095 8.65821C73.1344 8.65821 72.6597 8.87887 72.2852 9.32019C71.9241 9.74814 71.7436 10.3031 71.7436 10.9852V16.8227H69.196V9.46061Z" fill="#070F1A"/>
<path d="M89.23 17.0233C88.5748 17.0233 87.9863 16.8895 87.4648 16.6221C86.9432 16.3412 86.5353 15.9601 86.2411 15.4786C85.9469 14.9838 85.7998 14.4355 85.7998 13.8337C85.7998 12.804 86.2077 12.0149 87.0234 11.4666C87.8392 10.9183 89.0027 10.6442 90.5139 10.6442H92.0786V10.2229C92.0786 9.68796 91.9181 9.28007 91.5971 8.99923C91.2896 8.70501 90.8482 8.55791 90.2732 8.55791C89.6714 8.55791 89.0963 8.66489 88.548 8.87887C87.9997 9.09284 87.5517 9.38706 87.204 9.76151L86.0806 8.27707C86.6289 7.7555 87.2775 7.34761 88.0264 7.0534C88.7754 6.74581 89.551 6.59202 90.3534 6.59202C91.6908 6.59202 92.7406 6.90629 93.5028 7.53484C94.2651 8.16339 94.6463 9.03266 94.6463 10.1427V14.7164C94.6463 15.0239 94.6663 15.385 94.7065 15.7996C94.7599 16.2142 94.8201 16.5552 94.887 16.8227H92.6202C92.54 16.6488 92.4798 16.4816 92.4397 16.3212C92.3995 16.1473 92.3661 15.9133 92.3394 15.6191H92.2992C91.537 16.5552 90.5139 17.0233 89.23 17.0233ZM89.8519 15.0975C90.4938 15.0975 91.0221 14.937 91.4367 14.6161C91.8646 14.2817 92.0786 13.8605 92.0786 13.3523V12.3493H90.4337C89.7516 12.3493 89.2234 12.4763 88.8489 12.7304C88.4878 12.9845 88.3073 13.3523 88.3073 13.8337C88.3073 14.2349 88.441 14.5492 88.7085 14.7765C88.9893 14.9905 89.3705 15.0975 89.8519 15.0975Z" fill="#070F1A"/>
<path d="M98.7445 17.0032C98.2497 17.0032 97.8418 16.8427 97.5208 16.5218C97.1999 16.2008 97.0394 15.7929 97.0394 15.2981C97.0394 14.7899 97.1999 14.3753 97.5208 14.0544C97.8418 13.7334 98.2497 13.5729 98.7445 13.5729C99.2393 13.5729 99.6405 13.7334 99.9481 14.0544C100.269 14.3753 100.43 14.7899 100.43 15.2981C100.43 15.7929 100.269 16.2008 99.9481 16.5218C99.6405 16.8427 99.2393 17.0032 98.7445 17.0032Z" fill="#070F1A"/>
<defs>
<linearGradient id="paint0_linear" x1="5.5" y1="3.5" x2="23" y2="22.5" gradientUnits="userSpaceOnUse">
<stop stop-color="#FFA185"/>
<stop offset="1" stop-color="#FD8274"/>
</linearGradient>
</defs>
</svg>
