<svg width="1454" height="343" viewBox="0 0 1454 343" fill="none" xmlns="http://www.w3.org/2000/svg">
<path fill-rule="evenodd" clip-rule="evenodd" d="M6.77997 158.782C-8.14355 125.954 2.20841 87.3213 31.5468 66.3533C99.5529 17.7495 184.401 -6.63746 271.489 1.56571C307.131 4.92301 335.48 32.6804 339.425 68.2739C344.107 110.527 341.153 154.315 329.499 197.811C318.312 239.561 300.048 277.537 276.33 310.807C255.4 340.167 216.765 350.491 183.917 335.651C103.552 299.344 41.6237 235.43 6.77997 158.782ZM126.888 89.4353H246.57V110.007H126.888C121.19 110.007 116.57 105.402 116.57 99.7211C116.57 94.0404 121.19 89.4353 126.888 89.4353ZM157.84 151.15H246.57V171.721H157.84C146.444 171.721 137.205 180.931 137.205 192.292C137.205 203.654 146.444 212.864 157.84 212.864H246.57V233.435H157.84C135.048 233.435 116.57 215.015 116.57 192.292C116.57 169.57 135.048 151.15 157.84 151.15Z" fill="black"/>
<path d="M564.168 174.536H463.944C467.016 194.888 478.824 205.064 499.368 205.064C507.816 205.064 515.112 203.624 521.256 200.744C527.592 197.864 533.736 193.064 539.688 186.344L559.56 205.352C553.992 214.568 545.544 221.96 534.216 227.528C523.08 233.096 510.792 235.88 497.352 235.88C474.888 235.88 457.416 229.352 444.936 216.296C432.456 203.048 426.216 184.808 426.216 161.576C426.216 138.152 432.456 119.72 444.936 106.28C457.608 92.84 474.984 86.12 497.064 86.12C518.184 86.12 534.6 92.744 546.312 105.992C558.216 119.24 564.168 137.672 564.168 161.288V174.536ZM528.168 147.752C528.168 137.96 525.288 130.28 519.528 124.712C513.96 118.952 506.184 116.072 496.2 116.072C487.176 116.072 479.88 119.048 474.312 125C468.744 130.76 465.192 138.92 463.656 149.48H528.168V147.752ZM586.63 127.016C586.63 109.544 586.246 96.872 585.478 89H620.038C620.998 97.064 621.478 105.416 621.478 114.056H622.342C625.798 105.608 631.846 98.888 640.486 93.896C649.318 88.712 659.11 86.12 669.862 86.12C686.374 86.12 698.854 91.688 707.302 102.824C715.75 113.96 719.974 130.376 719.974 152.072V233H683.398V151.784C683.398 139.304 681.382 130.184 677.35 124.424C673.318 118.664 666.886 115.784 658.054 115.784C647.878 115.784 639.526 119.432 632.998 126.728C626.662 133.832 623.494 143.048 623.494 154.376V233H586.63V127.016ZM774.543 72.296C767.439 72.296 761.775 70.376 757.551 66.536C753.327 62.504 751.215 57.224 751.215 50.696C751.215 44.168 753.327 38.984 757.551 35.144C761.775 31.112 767.439 29.096 774.543 29.096C781.647 29.096 787.311 31.112 791.535 35.144C795.951 38.984 798.159 44.168 798.159 50.696C798.159 57.224 796.047 62.504 791.823 66.536C787.599 70.376 781.839 72.296 774.543 72.296ZM756.399 89H792.975V233H756.399V89ZM959.853 89V227.24C959.853 251.624 953.805 269.96 941.709 282.248C929.613 294.728 911.661 300.968 887.853 300.968C876.717 300.968 866.157 299.624 856.173 296.936C846.381 294.248 837.645 290.408 829.965 285.416L842.349 260.36C849.261 263.816 856.557 266.504 864.237 268.424C871.917 270.536 879.213 271.592 886.125 271.592C899.181 271.592 908.877 267.464 915.213 259.208C921.549 251.144 924.717 238.856 924.717 222.344V217.736C920.877 222.92 915.597 226.952 908.877 229.832C902.157 232.52 894.189 233.864 884.973 233.864C865.005 233.864 849.453 227.336 838.317 214.28C827.373 201.224 821.901 182.792 821.901 158.984C821.901 135.944 827.181 118.088 837.741 105.416C848.301 92.552 863.181 86.12 882.381 86.12C902.349 86.12 916.845 93.128 925.869 107.144H926.445L929.325 89H959.853ZM923.277 152.072C923.277 139.592 920.589 130.088 915.213 123.56C909.837 116.84 902.061 113.48 891.885 113.48C881.133 113.48 872.877 117.512 867.117 125.576C861.357 133.448 858.477 144.872 858.477 159.848C858.477 174.824 861.261 186.152 866.829 193.832C872.589 201.512 880.941 205.352 891.885 205.352C902.061 205.352 909.837 202.376 915.213 196.424C920.589 190.28 923.277 181.64 923.277 170.504V152.072ZM987.699 127.304C987.699 108.104 987.315 95.336 986.547 89H1018.8C1019.76 96.68 1020.24 105.032 1020.24 114.056H1020.82C1023.89 105.416 1029.46 98.6 1037.52 93.608C1045.59 88.616 1055 86.12 1065.75 86.12C1076.12 86.12 1084.95 88.424 1092.24 93.032C1099.54 97.448 1104.44 103.592 1106.93 111.464C1110.77 103.592 1116.63 97.448 1124.5 93.032C1132.37 88.424 1141.2 86.12 1151 86.12C1166.93 86.12 1179.41 91.304 1188.44 101.672C1197.65 111.848 1202.26 125.96 1202.26 144.008V233H1165.68V148.04C1165.68 137.864 1163.48 129.992 1159.06 124.424C1154.64 118.664 1148.6 115.784 1140.92 115.784C1132.47 115.784 1125.65 118.76 1120.47 124.712C1115.48 130.472 1112.98 138.344 1112.98 148.328V233H1076.69V149.192C1076.69 138.632 1074.58 130.472 1070.36 124.712C1066.13 118.76 1060.18 115.784 1052.5 115.784C1044.24 115.784 1037.43 118.952 1032.05 125.288C1026.87 131.432 1024.28 139.4 1024.28 149.192V233H987.699V127.304ZM1275.33 235.88C1265.92 235.88 1257.47 233.96 1249.98 230.12C1242.49 226.088 1236.64 220.616 1232.41 213.704C1228.19 206.6 1226.08 198.728 1226.08 190.088C1226.08 175.304 1231.93 163.976 1243.65 156.104C1255.36 148.232 1272.06 144.296 1293.76 144.296H1316.22V138.248C1316.22 130.568 1313.92 124.712 1309.31 120.68C1304.89 116.456 1298.56 114.344 1290.3 114.344C1281.66 114.344 1273.41 115.88 1265.53 118.952C1257.66 122.024 1251.23 126.248 1246.24 131.624L1230.11 110.312C1237.98 102.824 1247.29 96.968 1258.05 92.744C1268.8 88.328 1279.93 86.12 1291.45 86.12C1310.65 86.12 1325.73 90.632 1336.67 99.656C1347.61 108.68 1353.09 121.16 1353.09 137.096V202.76C1353.09 207.176 1353.37 212.36 1353.95 218.312C1354.72 224.264 1355.58 229.16 1356.54 233H1324C1322.85 230.504 1321.98 228.104 1321.41 225.8C1320.83 223.304 1320.35 219.944 1319.97 215.72H1319.39C1308.45 229.16 1293.76 235.88 1275.33 235.88ZM1284.25 208.232C1293.47 208.232 1301.05 205.928 1307.01 201.32C1313.15 196.52 1316.22 190.472 1316.22 183.176V168.776H1292.61C1282.81 168.776 1275.23 170.6 1269.85 174.248C1264.67 177.896 1262.08 183.176 1262.08 190.088C1262.08 195.848 1264 200.36 1267.84 203.624C1271.87 206.696 1277.34 208.232 1284.25 208.232ZM1411.92 235.592C1404.82 235.592 1398.96 233.288 1394.36 228.68C1389.75 224.072 1387.44 218.216 1387.44 211.112C1387.44 203.816 1389.75 197.864 1394.36 193.256C1398.96 188.648 1404.82 186.344 1411.92 186.344C1419.03 186.344 1424.79 188.648 1429.2 193.256C1433.81 197.864 1436.12 203.816 1436.12 211.112C1436.12 218.216 1433.81 224.072 1429.2 228.68C1424.79 233.288 1419.03 235.592 1411.92 235.592Z" fill="black"/>
</svg>
