<svg width="30" height="30" viewBox="0 0 30 30" fill="none" xmlns="http://www.w3.org/2000/svg">
<path d="M21.25 3.75H8.75C5.98875 3.75 3.75 5.98875 3.75 8.75V21.25C3.75 24.0113 5.98875 26.25 8.75 26.25H15.7763V17.5487H12.8475V14.1425H15.7763V11.6363C15.7763 8.73125 17.5525 7.1475 20.145 7.1475C21.0187 7.145 21.8913 7.19 22.76 7.27875V10.3163H20.975C19.5625 10.3163 19.2875 10.9837 19.2875 11.9687V14.1375H22.6625L22.2237 17.5437H19.2675V26.25H21.25C24.0113 26.25 26.25 24.0113 26.25 21.25V8.75C26.25 5.98875 24.0113 3.75 21.25 3.75Z" fill="#070F1A"/>
</svg>
