<svg width="936" height="840" viewBox="0 0 936 840" fill="none" xmlns="http://www.w3.org/2000/svg">
<path fill-rule="evenodd" clip-rule="evenodd" d="M788.225 251.334C787.692 250.946 786.426 250.809 785.838 250.692C783.39 250.21 780.869 250 778.374 250C770.681 250.012 762.863 250.767 755.298 252.074C750.494 252.903 744.687 255.696 739.909 254.179C731.585 251.537 723.172 251.667 715.274 255.439C708.053 258.888 702.572 265.439 699.373 272.517C698.89 273.586 696.932 277.519 696.378 280.17C696.141 280.712 695.913 281.257 695.708 281.811C695.126 283.384 694.603 284.984 694.118 286.588C693.91 287.272 693.389 288.782 694.008 289.074C693.019 290.901 692.141 292.783 691.411 294.726C689.286 300.378 686.962 306.578 686.215 312.568C685.939 314.786 685.928 317.017 686.185 319.239C686.312 320.338 686.26 322.546 687.004 323.382C688.585 325.154 689.396 322.673 689.218 321.491C687.858 312.485 690.485 304.027 693.598 295.561C695.612 290.087 698.92 285.078 702.626 280.543C705.625 276.871 708.842 273.98 712.953 271.546C717.981 268.569 723.356 266.163 728.681 263.749C732.184 262.161 735.691 260.615 739.291 259.247C740.092 258.942 741.351 258.161 742.239 258.158C744.116 258.152 746.777 259.537 748.59 260.052C754.554 261.748 760.594 263.919 766.758 264.785C770.712 265.341 774.416 264.715 778.113 263.398C778.491 263.264 779.125 262.918 779.901 262.424C782.646 261.368 785.243 260.039 787.504 258.121C788.806 257.017 789.989 255.589 791.067 254.282C791.389 253.892 791.532 253.444 791.537 253.018C791.781 252.891 791.943 252.741 791.98 252.567C792.249 251.281 789.796 251.258 788.225 251.334" fill="#89C5CC"/>
<path fill-rule="evenodd" clip-rule="evenodd" d="M163.273 358.541C161.764 359.763 160.284 361.011 158.84 362.31C157.739 363.3 155.791 364.485 155.396 365.985C154.985 367.544 156.282 369.003 157.306 369.945C162.723 374.929 168.823 378.298 176.329 378.859C187.887 379.722 197.946 376.77 207.974 370.963C215.018 366.883 219.684 360.849 220.703 352.701C229.092 356.187 237.205 360.993 244.1 366.891C247.502 369.801 250.432 373.025 253.142 376.599C254.878 378.889 256.557 381.215 258.115 383.631C258.792 384.68 259.481 386.542 260.599 387.146C261.912 387.856 263.499 386.743 263.434 385.284C263.379 384.069 262.068 382.66 261.454 381.667C260.436 380.018 259.402 378.379 258.313 376.776C256.551 374.179 254.73 371.62 252.744 369.19C248.28 363.73 242.601 359.221 236.714 355.375C225.42 347.997 213.025 343.349 199.283 342.955C190.833 342.713 183.725 345.6 176.499 349.911C172 352.595 167.356 355.235 163.273 358.541" fill="#DDE3E9"/>
<path fill-rule="evenodd" clip-rule="evenodd" d="M272.883 322.856C264.077 313.787 255.241 304.832 245.403 296.847C239.605 292.141 233.495 287.863 227.511 283.401C228.201 284.006 228.878 284.628 229.539 285.266C227.671 283.998 225.226 283.281 223.246 282.107C221.037 280.798 218.925 279.301 216.854 277.791C212.811 274.845 208.829 271.843 204.673 269.051C200.043 265.94 195.245 263.066 190.536 260.072C186.539 257.532 182.494 254.751 178.218 252.674C175.888 251.542 173.553 250.201 171.213 249.02C170.43 248.625 162.484 243.608 162.504 243.593C162.943 243.262 166.942 245.14 167.56 245.393C169.366 246.131 171.094 247.013 172.83 247.893C171.877 246.013 171.123 244.038 170.712 241.958C170.585 241.317 169.569 236.644 170.089 236.252C170.348 236.057 172.883 244.416 173.013 245.22C173.119 245.872 173.103 246.812 173.317 247.431C173.662 248.429 173.645 248.127 174.405 248.69C175.798 249.721 177.647 250.365 179.154 251.227C179.968 251.68 182.485 253.48 184.001 253.993C188.588 256.221 193.238 259.649 197.597 262.495C196.453 260.345 195.582 258.097 194.948 255.741C194.797 255.182 193.167 250.165 193.563 249.867C194.008 249.532 197.112 257.195 197.296 257.92C197.637 259.268 197.708 260.768 198.136 262.079C198.605 263.518 200.07 264.028 201.39 264.867C206.247 267.953 210.938 271.232 215.55 274.662C220.583 265.711 214.78 254.903 209.89 247.393C206.364 241.98 201.619 237.34 196.608 233.289C189.92 227.882 182.269 223.563 174.627 219.612C165.723 215.009 156.099 212.156 146.093 210.839C140.86 210.149 135.507 210.169 130.221 210.39C127.639 210.498 125.16 210.84 122.686 211.682C121.57 212.062 120.492 212.541 119.442 213.077C118.644 213.484 116.713 213.914 116.255 214.521C112.477 219.438 110.545 224.337 110.84 230.515C111.119 236.363 112.966 242.214 115.472 247.431C118.264 253.24 121.854 258.512 126.55 262.936C130.132 266.312 134.137 269.25 138.116 272.15C152.267 282.463 170.208 291.433 188.536 289.128C194.469 288.383 200.112 286.308 205.385 283.489C206.628 282.824 207.863 282.152 209.036 281.368C209.827 280.839 211.941 278.456 212.736 278.37C213.827 278.251 216.175 280.469 217.198 281.144C224.972 286.275 232.542 291.685 239.953 297.313C247.839 303.301 255.337 309.697 262.615 316.393C265.71 319.242 268.786 322.096 271.791 325.04C272.491 325.725 274.202 328.247 275.471 328.361C276.273 328.434 276.814 327.749 276.7 327.006C276.501 325.715 273.785 323.784 272.883 322.856" fill="#C1DEE2"/>
<path fill-rule="evenodd" clip-rule="evenodd" d="M778.98 287.66C775.57 286.915 771.803 286.972 768.329 287.033C749.695 287.287 731.397 296.109 719.489 310.205C709.351 322.205 706.563 337.125 704.56 352.207C704.362 353.704 704.277 355.192 704.165 356.693C704.141 357.015 704.105 357.302 704.066 357.573C703.279 358.277 702.865 359.098 703.332 360C701.597 363.797 700.129 367.69 698.869 371.706C695.162 383.526 691.392 395.571 693.714 408C694.257 401.16 695.399 394.166 696.764 387.438C696.842 387.052 696.927 386.669 697.015 386.287C697.025 386.247 697.033 386.206 697.042 386.166C697.525 384.106 698.153 382.108 698.917 380.141C698.925 380.119 698.933 380.098 698.941 380.077C699.042 379.818 699.149 379.56 699.255 379.303C699.474 378.77 699.699 378.238 699.937 377.709C700.018 377.528 700.095 377.346 700.17 377.163C701.282 374.437 701.751 371.365 702.748 368.545C702.986 367.904 703.235 367.265 703.496 366.629C703.512 366.592 703.527 366.555 703.543 366.518C704.249 364.807 705.028 363.118 705.853 361.446C706.301 361.11 706.54 360.274 706.927 359.515C707.006 359.365 707.631 358.368 707.817 357.793C708.303 356.854 708.786 355.915 709.275 354.977C709.261 354.983 709.246 354.988 709.231 354.994C709.72 354.093 710.211 353.197 710.698 352.304C710.805 352.108 710.913 351.912 711.021 351.715C711.196 351.402 711.371 351.089 711.545 350.777C713.177 347.856 714.908 344.994 716.705 342.167C717.347 341.158 718.879 339.711 719.173 338.579C719.184 338.536 719.186 338.497 719.193 338.457C723.093 332.979 727.582 327.927 732.967 323.924C732.316 324.628 730.932 327.015 730.567 327.488C729.447 328.935 728.232 330.282 727.013 331.646C724.828 334.089 722.696 336.609 720.801 339.274C717.335 344.148 714.346 349.277 711.519 354.51C711.493 354.54 711.463 354.569 711.438 354.601C710.017 356.352 709.123 358.998 708.101 361.001C712.147 359.127 716.622 357.906 720.774 356.242C724.916 354.583 728.944 352.735 732.834 350.566C738.003 347.682 743.366 344.427 748.25 340.743C753.847 337.271 758.551 332.492 762.703 327.477C767.615 321.543 772.117 315.558 774.901 308.353C776.269 304.813 777.345 301.121 777.983 297.386C778.011 297.224 778.046 297.047 778.085 296.864C778.738 295.574 779.321 294.255 779.811 292.906C780.588 290.766 782.425 288.412 778.98 287.66" fill="#69A1AC"/>
<path fill-rule="evenodd" clip-rule="evenodd" d="M130.292 299.014C128.94 297.666 127.422 296.45 125.64 295.583C125.189 295.364 121.833 293.895 121.614 294.218C121.105 294.968 129.886 298.583 130.292 299.014M146.205 290.012C146.194 290.069 147.358 291.887 147.675 292.446C148.349 293.635 148.972 294.847 149.558 296.061C148.691 293.916 147.8 291.928 146.205 290.012M64.8181 304.814C63.6972 305.146 62.3496 303.836 63.8035 303.514C64.9799 303.254 64.9222 303.193 65.4504 302.321C65.8794 301.612 66.1436 300.748 66.52 300.005C67.3184 298.427 68.224 296.923 69.3357 295.514C71.7182 292.493 74.621 289.89 77.8767 287.696C83.5586 283.868 89.9293 280.369 96.6872 278.611C107.432 275.816 119.662 275.643 130.424 277.581C137.089 278.781 143.181 280.867 147.606 285.809C149.818 288.279 151.555 291.172 152.314 294.358C152.512 295.19 152.475 296.116 152.723 296.932C153.104 298.185 152.936 297.851 154.528 298.095C156.267 298.362 158.004 298.633 159.74 298.91C164.287 299.634 168.861 300.403 173.291 301.578C174.75 301.965 176.176 302.437 177.569 302.987C178.622 303.402 182.818 304.704 183.328 305.965C184.177 308.062 181.333 307.111 180.45 306.655C179.676 306.254 178.881 305.881 178.075 305.538C176.045 304.673 173.93 304.004 171.767 303.471C169.43 302.895 167.045 302.466 164.669 302.035C162.454 301.634 160.23 301.27 158.003 300.921C156.766 300.727 155.528 300.539 154.29 300.35C153.867 300.286 153.122 299.949 153.178 300.455C150.575 299.993 147.76 300.06 145.109 299.932C141.862 299.777 138.602 299.649 135.344 299.742C132.994 299.81 130.642 299.952 128.304 300.242C126.938 300.412 125.594 300.661 124.253 300.976C123.517 301.149 120.614 301.515 120.213 302.106C120.385 301.852 123.589 302.099 123.997 302.084C125.628 302.028 127.247 301.879 128.872 301.712C131.888 301.402 134.906 301.24 137.931 301.263C137.92 301.752 135.853 302.623 135.348 302.947C134.217 303.674 133.134 304.467 132.123 305.337C130.343 306.869 128.211 308.766 126.979 310.581C127.342 310.046 129.133 309.35 129.768 308.942C130.786 308.287 131.783 307.588 132.727 306.841C133.598 306.152 134.411 305.407 135.21 304.646C136.009 303.885 137.094 302.303 138.144 301.796C138.208 301.765 138.666 302.098 138.926 301.985C139.188 301.871 139.514 301.3 139.581 301.277C140.559 300.93 142.415 301.362 143.443 301.406C146.109 301.519 148.772 301.667 151.435 301.802C152.26 301.843 152.962 301.671 153.273 302.231C153.605 302.829 152.997 304.4 152.824 305.051C152.181 307.469 151.041 309.638 149.245 311.511C145.883 315.02 141.736 317.359 137.052 318.924C119.111 324.918 100.023 327.318 82.0874 321.083C74.6619 318.502 63.4791 313.889 64.8181 304.814" fill="#89C5CC"/>
<g opacity="0.6">
<path fill-rule="evenodd" clip-rule="evenodd" d="M896.626 587.189C909.132 663.272 605.821 712.899 344.754 678.266C83.6862 643.633 -36.0791 508.387 88.4979 436.322C213.075 364.258 884.119 511.106 896.626 587.189Z" fill="#DDE3E9"/>
</g>
<path fill-rule="evenodd" clip-rule="evenodd" d="M212.674 372.706C210.999 372.706 209.328 372.737 207.654 372.817C206.379 372.878 204.429 372.635 203.35 373.367C202.228 374.128 202.305 375.684 202.48 376.784C203.407 382.598 205.667 387.753 210.396 391.872C217.678 398.214 226.025 401.437 235.903 402.872C242.841 403.88 249.247 402.48 254.354 397.937C258.086 404.315 260.917 411.373 262.338 418.496C263.039 422.011 263.253 425.484 263.13 429.063C263.05 431.356 262.913 433.643 262.646 435.925C262.53 436.916 261.981 438.417 262.403 439.354C262.898 440.454 264.566 440.56 265.315 439.622C265.938 438.841 265.824 437.308 265.952 436.384C266.164 434.849 266.36 433.313 266.501 431.771C266.729 429.274 266.898 426.771 266.886 424.266C266.857 418.636 265.498 412.985 263.639 407.641C260.072 397.389 254.284 388.277 245.283 381.128C239.749 376.732 233.415 374.952 226.228 373.997C221.754 373.402 217.207 372.706 212.674 372.706" fill="#89C5CC"/>
<path fill-rule="evenodd" clip-rule="evenodd" d="M238.517 413.471C220.431 413.471 208.25 426.893 202.491 440.843C200.32 446.101 199.811 451.875 198.974 457.397C198.705 459.169 198.805 461.869 198.024 463.447C197.74 464.02 197.09 464.225 197.401 465.005C197.589 465.478 197.958 465.767 198.512 465.861C199.65 466.053 201.259 464.913 202.234 464.462C210.324 460.726 215.64 454.949 219.976 447.882C222.664 443.501 225.391 438.953 226.988 434.144C227.963 431.206 228.531 428.112 228.864 425.064C228.996 423.864 229.123 422.635 229.115 421.427C229.107 420.229 228.502 419.596 228.067 418.553C234.102 416.45 240.913 415.876 247.026 418.056C252.68 420.072 257.377 423.968 260.007 428.863C260.69 430.135 261.217 431.477 261.601 432.846C261.852 433.743 261.864 434.906 262.33 435.717C263.459 437.682 265.834 436.368 265.606 434.539C264.97 429.436 261.8 424.313 257.748 420.765C252.637 416.29 245.71 413.471 238.517 413.471" fill="#89C5CC"/>
<rect x="258.032" y="118.8" width="201.113" height="351.741" rx="8" fill="#DDE3E9"/>
<path fill-rule="evenodd" clip-rule="evenodd" d="M381 441C389.284 441 396 434.284 396 426C396 417.716 389.284 411 381 411C372.716 411 366 417.716 366 426C366 434.284 372.716 441 381 441Z" fill="white"/>
<path fill-rule="evenodd" clip-rule="evenodd" d="M341.514 142.094C342.911 142.094 344.043 141.051 344.043 139.765C344.043 138.478 342.911 137.435 341.514 137.435C340.116 137.435 338.984 138.478 338.984 139.765C338.984 141.051 340.116 142.094 341.514 142.094Z" fill="white"/>
<rect x="350.368" y="137.435" width="26.5622" height="4.65881" rx="2" fill="white"/>
<rect x="218" y="192" width="327" height="154" rx="4" fill="white"/>
<rect x="325.07" y="238.299" width="92.3351" height="7.33763" rx="3" fill="#DDE3E9"/>
<rect x="325.07" y="250.528" width="61.9784" height="7.33765" rx="3" fill="#DDE3E9"/>
<path fill-rule="evenodd" clip-rule="evenodd" d="M239 281C245.627 281 251 275.627 251 269C251 262.373 245.627 257 239 257C232.373 257 227 262.373 227 269C227 275.627 232.373 281 239 281Z" fill="#C5CFD6"/>
<rect x="270" y="127" width="531" height="458" rx="8" fill="#F2F2F2"/>
<rect x="656.465" y="198" width="88.5406" height="94.3412" rx="8" fill="white"/>
<path fill-rule="evenodd" clip-rule="evenodd" d="M700.735 252.741C711.912 252.741 720.973 244.398 720.973 234.106C720.973 223.814 711.912 215.471 700.735 215.471C689.558 215.471 680.497 223.814 680.497 234.106C680.497 244.398 689.558 252.741 700.735 252.741Z" fill="#DDE3E9"/>
<rect x="669.114" y="257.4" width="63.2432" height="6.98822" rx="3.49411" fill="#DDE3E9"/>
<rect x="679.232" y="269.047" width="43.0054" height="6.98822" rx="3.49411" fill="#DDE3E9"/>
<path d="M270 155.918C270 151.499 273.582 147.918 278 147.918H793C797.418 147.918 801 151.499 801 155.918V179.365H270V155.918Z" fill="#C5CFD6"/>
<path fill-rule="evenodd" clip-rule="evenodd" d="M357.957 168.882C360.751 168.882 363.016 166.797 363.016 164.224C363.016 161.651 360.751 159.565 357.957 159.565C355.163 159.565 352.897 161.651 352.897 164.224C352.897 166.797 355.163 168.882 357.957 168.882Z" fill="#F2F2F2"/>
<path fill-rule="evenodd" clip-rule="evenodd" d="M373.135 168.882C375.929 168.882 378.195 166.797 378.195 164.224C378.195 161.651 375.929 159.565 373.135 159.565C370.341 159.565 368.076 161.651 368.076 164.224C368.076 166.797 370.341 168.882 373.135 168.882Z" fill="#F2F2F2"/>
<path fill-rule="evenodd" clip-rule="evenodd" d="M388.314 168.882C391.108 168.882 393.373 166.797 393.373 164.224C393.373 161.651 391.108 159.565 388.314 159.565C385.519 159.565 383.254 161.651 383.254 164.224C383.254 166.797 385.519 168.882 388.314 168.882Z" fill="#F2F2F2"/>
<rect x="656.465" y="301.659" width="88.5406" height="225.953" rx="8" fill="white"/>
<rect x="679.232" y="322.624" width="43.0054" height="30.2823" rx="4" fill="#DDE3E9"/>
<rect x="679.232" y="362.224" width="43.0054" height="29.1177" rx="4" fill="#AFB9C5"/>
<rect x="679.232" y="400.659" width="43.0054" height="29.1177" rx="4" fill="#DDE3E9"/>
<rect x="679.232" y="477.529" width="43.0054" height="29.1177" rx="4" fill="#DDE3E9"/>
<rect x="679.232" y="439.094" width="43.0054" height="29.1176" rx="4" fill="#C5CFD6"/>
<rect x="286" y="171" width="421" height="159" rx="4" fill="white"/>
<rect x="373.135" y="215.587" width="211.232" height="8.21115" rx="3" fill="#DDE3E9"/>
<rect x="373.135" y="229.272" width="141.786" height="8.21115" rx="3" fill="#DDE3E9"/>
<path fill-rule="evenodd" clip-rule="evenodd" d="M615.931 234.688C620.821 234.688 624.785 231.038 624.785 226.535C624.785 222.033 620.821 218.382 615.931 218.382C611.041 218.382 607.077 222.033 607.077 226.535C607.077 231.038 611.041 234.688 615.931 234.688Z" fill="#DDE3E9"/>
<path fill-rule="evenodd" clip-rule="evenodd" d="M615.931 230.029C618.027 230.029 619.726 228.465 619.726 226.535C619.726 224.606 618.027 223.041 615.931 223.041C613.836 223.041 612.137 224.606 612.137 226.535C612.137 228.465 613.836 230.029 615.931 230.029Z" fill="#F2F2F2"/>
<rect x="373.135" y="276.851" width="211.232" height="6.81354" rx="3" fill="#DDE3E9"/>
<rect x="373.135" y="288.206" width="141.786" height="6.81351" rx="3" fill="#DDE3E9"/>
<path fill-rule="evenodd" clip-rule="evenodd" d="M615.931 294.088C620.821 294.088 624.785 290.438 624.785 285.935C624.785 281.433 620.821 277.782 615.931 277.782C611.041 277.782 607.077 281.433 607.077 285.935C607.077 290.438 611.041 294.088 615.931 294.088Z" fill="#DDE3E9"/>
<path fill-rule="evenodd" clip-rule="evenodd" d="M615.931 289.429C618.027 289.429 619.726 287.865 619.726 285.935C619.726 284.006 618.027 282.441 615.931 282.441C613.836 282.441 612.137 284.006 612.137 285.935C612.137 287.865 613.836 289.429 615.931 289.429Z" fill="#F2F2F2"/>
<rect x="286" y="414" width="421" height="151" rx="4" fill="white"/>
<rect x="373.135" y="495.815" width="211.232" height="6.81351" rx="3" fill="#DDE3E9"/>
<rect x="373.135" y="507.171" width="141.786" height="6.81357" rx="3" fill="#DDE3E9"/>
<path fill-rule="evenodd" clip-rule="evenodd" d="M615.931 513.053C620.821 513.053 624.785 509.403 624.785 504.9C624.785 500.397 620.821 496.747 615.931 496.747C611.041 496.747 607.077 500.397 607.077 504.9C607.077 509.403 611.041 513.053 615.931 513.053Z" fill="#DDE3E9"/>
<path fill-rule="evenodd" clip-rule="evenodd" d="M615.931 508.394C618.027 508.394 619.726 506.83 619.726 504.9C619.726 502.97 618.027 501.406 615.931 501.406C613.836 501.406 612.137 502.97 612.137 504.9C612.137 506.83 613.836 508.394 615.931 508.394Z" fill="#F2F2F2"/>
<path fill-rule="evenodd" clip-rule="evenodd" d="M785.986 353.376C782.041 350.701 776.796 350 772.076 350C753.64 350 736.311 356.84 721.341 367.032C713.138 372.616 705.8 379.728 699.322 387.132C695.582 391.407 692.248 396.03 689.887 401.173C688.294 404.644 687.201 408.261 686.46 411.991C685.557 416.537 684.839 421.175 684.515 425.797C684.387 427.617 683.33 437.274 686.356 437.438C686.338 437.676 686.334 437.903 686.353 438.106C679.782 448.38 675.723 460.42 671.958 471.835C668.683 481.769 665.764 491.786 663.87 502.063C661.375 515.592 659.737 529.326 658.958 543.05C658.791 545.999 658.676 548.95 658.577 551.903C658.493 554.422 658.408 556.941 658.325 559.461C658.233 562.284 657.736 565.534 658.185 568.34C658.576 570.784 660.691 570.414 660.785 567.982C660.898 565.045 660.879 562.102 661.008 559.163C661.179 555.262 661.355 551.361 661.546 547.461C662.875 520.369 667.86 493.675 677.061 468.084C680.785 457.728 685.051 447.925 690.535 438.345C695.356 429.922 701.156 421.767 707.084 414.173C712.845 406.792 718.836 399.583 725.895 393.33C731.624 388.256 737.926 383.835 744.404 379.722C752.631 374.498 760.843 369.401 769.755 365.391C774.388 363.307 779.108 361.441 783.777 359.44C784.617 359.081 785.517 358.732 786.325 358.315C789.02 356.925 788.133 354.832 785.986 353.376" fill="#C1DEE2"/>
<path fill-rule="evenodd" clip-rule="evenodd" d="M711.818 448C719.295 448 725.949 448.972 732.838 451.943C738.785 454.508 744.205 457.903 749.467 461.599C756.868 466.798 762.698 472.848 766.779 480.865C769.217 485.654 771.006 492.431 769.368 497.655C767.44 503.807 762.144 508.939 755.169 507.855C750.856 507.185 746.903 504.33 743.625 501.643C739.703 498.428 736.564 494.563 733.972 490.27C729.744 483.267 727.26 475.351 723.668 468.033C721.964 464.56 720.317 461.063 718.275 457.762C717.265 456.128 716.189 454.509 714.656 453.294C713.836 452.644 710.378 451.52 711.7 450.061C692.31 450.315 675.132 465.207 671.409 483.641C671.063 485.359 670.792 487.091 670.505 488.82C670.325 489.911 670.398 493.937 669.422 494.634C667.27 496.172 668.174 491.499 668.267 490.826C668.506 489.087 668.76 487.35 669.027 485.615C670.481 476.181 674.681 467.411 681.685 460.683C689.694 452.99 700.501 448 711.818 448" fill="#89C5CC"/>
<path fill-rule="evenodd" clip-rule="evenodd" d="M94.7862 429.469C118.397 465.943 145.896 501.259 162.41 541.137C161.744 536.437 161.039 531.741 160.249 527.052C156.059 502.197 150.851 477.522 145.378 452.878C142.591 440.331 139.644 427.828 136.621 415.327C134.995 408.613 133.389 401.895 131.73 395.187C131.328 393.561 130.982 390.723 130.479 387.847C146.528 436.342 162.005 484.873 173.325 534.533C174.811 541.05 176.075 547.556 177.111 554.051C177.466 552.569 177.814 551.087 178.196 549.61C182.776 531.898 189.647 514.327 197.828 497.766C201.739 489.846 206.232 482.099 211.521 474.881C214.819 470.382 222.598 465.033 225.607 460.425C209.151 488.217 203.209 522.99 193.708 553.204C191.389 560.577 189.055 567.939 186.769 575.313C201.097 548.853 223.329 527.113 254.238 517.691C216.823 540.455 194.382 580.319 179.259 621.091C179.209 621.574 179.15 622.058 179.099 622.542C183.549 614.765 189.154 607.731 196.752 602.805C213.012 592.258 231.049 595.331 246.822 604.377C234.443 597.132 212.071 603.73 201.655 611.094C194.198 616.366 187.826 623.438 182.292 630.338C180.966 631.992 179.157 633.922 177.246 635.981C174.567 651.997 170.2 667.903 164.018 683.682C165.038 679.153 164.301 671.909 164.584 668.533C164.614 668.168 164.639 667.802 164.67 667.438C163.73 670.893 162.822 674.308 161.948 677.669C163.686 671.256 164.63 664.562 165.367 657.798C165.557 654.891 165.742 651.985 165.938 649.078C165.876 643.562 165.629 638.024 165.212 632.477C163.732 627.087 162.076 622.002 160.709 617.773C155.779 602.514 148.551 587.896 139.655 574.259C131.538 561.815 121.822 550.542 110.606 540.347C104.559 534.853 98.2311 529.62 91.9922 524.315C89.7361 522.397 85.7037 517.681 82.2162 515.223C107.615 528.117 133.758 542.066 152.287 562.841C150.114 555.16 147.755 547.588 145.259 540.167C132.597 502.518 116.61 463.498 94.7862 429.469Z" fill="#DDE3E9"/>
<path fill-rule="evenodd" clip-rule="evenodd" d="M120.162 635.929C120.162 677.741 123.758 711.635 172.022 711.635C220.285 711.635 223.881 677.741 223.881 635.929" fill="#C5CFD6"/>
<rect x="657.73" y="97.8353" width="7.58923" height="29.1176" rx="3.5" fill="#DDE3E9"/>
<rect x="675.438" y="79.2" width="7.58917" height="47.7529" rx="3.5" fill="#DDE3E9"/>
<rect x="693.146" y="69.8824" width="7.58911" height="57.0706" rx="3.5" fill="#DDE3E9"/>
<rect x="710.854" y="79.2" width="7.58923" height="47.7529" rx="3.5" fill="#DDE3E9"/>
<rect x="728.562" y="60.5647" width="7.58923" height="66.3882" rx="3.5" fill="#C5CFD6"/>
<path fill-rule="evenodd" clip-rule="evenodd" d="M35.4163 417.263C35.4163 404.29 46.8026 393.671 60.7136 393.671V417.263L43.4254 434.435C38.5077 430.237 35.4163 424.078 35.4163 417.263Z" fill="#F2F2F2"/>
<path fill-rule="evenodd" clip-rule="evenodd" d="M60.0442 416.965H85.5909C85.5909 423.046 82.897 428.743 78.6384 432.884C73.9544 437.412 67.2841 440.259 60.0442 440.259C53.3752 440.259 47.2708 437.802 42.5855 433.919L60.0442 416.965Z" fill="#AFB9C5"/>
<path fill-rule="evenodd" clip-rule="evenodd" d="M86.0109 416.965C86.0109 404.155 74.6246 393.671 60.7136 393.671V416.965H86.0109ZM48.0649 393.671L58.1838 414.635L35.4163 405.318C37.6677 399.883 42.7234 395.744 48.0649 393.671Z" fill="#C5CFD6"/>
<path fill-rule="evenodd" clip-rule="evenodd" d="M858.548 427.656C856.117 430.032 852.674 431.523 848.845 431.523C841.486 431.523 835.521 426.048 835.521 419.294C835.521 412.54 841.486 407.065 848.845 407.065V384.353C827.912 384.353 810.778 400.08 810.778 419.294C810.778 438.508 827.912 454.235 848.845 454.235C859.84 454.235 869.777 449.965 876.551 443.173L858.548 427.656Z" fill="#F2F2F2"/>
<path fill-rule="evenodd" clip-rule="evenodd" d="M848.724 384.353V407.065C856.059 407.065 862.005 412.54 862.005 419.294H886.67C886.67 400.08 869.591 384.353 848.724 384.353Z" fill="#AFB9C5"/>
<path fill-rule="evenodd" clip-rule="evenodd" d="M861.496 419.294C861.496 423.262 859.466 426.789 856.313 429.067L871.823 447.247C880.851 440.738 886.67 430.649 886.67 419.294H861.496Z" fill="#C5CFD6"/>
<path fill-rule="evenodd" clip-rule="evenodd" d="M617.319 106.575C615.449 108.397 612.801 109.541 609.855 109.541C604.195 109.541 599.606 105.343 599.606 100.165C599.606 94.9865 604.195 90.7888 609.855 90.7888V73.3765C593.753 73.3765 580.573 85.4338 580.573 100.165C580.573 114.896 593.753 126.953 609.855 126.953C618.313 126.953 625.957 123.679 631.168 118.472L617.319 106.575Z" fill="#F2F2F2"/>
<path fill-rule="evenodd" clip-rule="evenodd" d="M609.665 73.3765V90.7888C615.288 90.7888 619.847 94.9865 619.847 100.165H638.757C638.757 85.4338 625.663 73.3765 609.665 73.3765Z" fill="#AFB9C5"/>
<path fill-rule="evenodd" clip-rule="evenodd" d="M619.876 100.165C619.876 103.141 618.354 105.786 615.989 107.494L627.621 121.129C634.392 116.248 638.757 108.681 638.757 100.165H619.876Z" fill="#C5CFD6"/>
<path fill-rule="evenodd" clip-rule="evenodd" d="M156.852 126.937C156.847 126.949 156.842 126.96 156.834 126.974C156.842 126.963 156.852 126.916 156.852 126.937" fill="#C5CFD6"/>
<path fill-rule="evenodd" clip-rule="evenodd" d="M156.84 126.955C156.84 126.957 156.838 126.962 156.838 126.966C156.838 126.955 156.861 126.92 156.84 126.955" fill="#C5CFD6"/>
<path fill-rule="evenodd" clip-rule="evenodd" d="M156.928 126.758C156.91 126.804 156.888 126.848 156.867 126.895C156.878 126.872 156.888 126.853 156.898 126.83C156.635 127.435 156.802 127.042 156.928 126.758" fill="#C5CFD6"/>
<path fill-rule="evenodd" clip-rule="evenodd" d="M156.872 126.898C156.861 126.919 156.851 126.942 156.841 126.963C156.768 127.094 156.872 126.898 156.872 126.898" fill="#C5CFD6"/>
<path fill-rule="evenodd" clip-rule="evenodd" d="M156.842 126.955C156.842 126.953 156.842 126.953 156.845 126.951C156.842 126.953 156.842 126.953 156.842 126.955" fill="#C5CFD6"/>
<path fill-rule="evenodd" clip-rule="evenodd" d="M156.83 126.972C156.815 127 156.901 126.865 156.83 126.972Z" fill="#C5CFD6"/>
<path fill-rule="evenodd" clip-rule="evenodd" d="M156.841 126.955L156.846 126.951C156.843 126.953 156.843 126.955 156.841 126.955" fill="#C5CFD6"/>
<rect x="96.1298" y="66.3882" width="120.162" height="73.3765" rx="4" fill="#DDE3E9"/>
<path fill-rule="evenodd" clip-rule="evenodd" d="M141.665 87.353L106.249 139.765H177.081L141.665 87.353Z" fill="#AFB9C5"/>
<path fill-rule="evenodd" clip-rule="evenodd" d="M176.449 101.329L145.459 139.765H207.438L176.449 101.329Z" fill="#C5CFD6"/>
<path fill-rule="evenodd" clip-rule="evenodd" d="M189.73 101.329C196.017 101.329 201.114 96.6363 201.114 90.8471C201.114 85.0578 196.017 80.3647 189.73 80.3647C183.443 80.3647 178.346 85.0578 178.346 90.8471C178.346 96.6363 183.443 101.329 189.73 101.329Z" fill="white"/>
<path fill-rule="evenodd" clip-rule="evenodd" d="M760.175 624.266C760.18 624.278 760.185 624.29 760.193 624.304C760.185 624.292 760.175 624.245 760.175 624.266" fill="#C5CFD6"/>
<path fill-rule="evenodd" clip-rule="evenodd" d="M760.187 624.284C760.187 624.286 760.189 624.291 760.189 624.296C760.189 624.284 760.167 624.249 760.187 624.284" fill="#C5CFD6"/>
<path fill-rule="evenodd" clip-rule="evenodd" d="M760.099 624.087C760.117 624.134 760.139 624.178 760.16 624.224C760.15 624.201 760.139 624.183 760.129 624.159C760.392 624.765 760.225 624.371 760.099 624.087" fill="#C5CFD6"/>
<path fill-rule="evenodd" clip-rule="evenodd" d="M760.156 624.227C760.166 624.248 760.176 624.272 760.186 624.293C760.259 624.423 760.156 624.227 760.156 624.227" fill="#C5CFD6"/>
<path fill-rule="evenodd" clip-rule="evenodd" d="M760.185 624.285C760.185 624.282 760.185 624.282 760.183 624.28C760.185 624.282 760.185 624.282 760.185 624.285" fill="#C5CFD6"/>
<path fill-rule="evenodd" clip-rule="evenodd" d="M760.197 624.301C760.212 624.329 760.126 624.194 760.197 624.301Z" fill="#C5CFD6"/>
<path fill-rule="evenodd" clip-rule="evenodd" d="M760.186 624.285L760.181 624.28C760.184 624.282 760.184 624.285 760.186 624.285" fill="#C5CFD6"/>
<rect width="179.611" height="109.482" rx="4" transform="matrix(-1 0 0 1 849.989 534.6)" fill="#DDE3E9"/>
<path fill-rule="evenodd" clip-rule="evenodd" d="M783.298 566.047L835.227 644.082H731.369L783.298 566.047Z" fill="#AFB9C5"/>
<path fill-rule="evenodd" clip-rule="evenodd" d="M729.757 586.949L775.665 644.082H683.848L729.757 586.949Z" fill="#C5CFD6"/>
<path fill-rule="evenodd" clip-rule="evenodd" d="M710.222 587.012C700.791 587.012 693.146 579.972 693.146 571.288C693.146 562.604 700.791 555.565 710.222 555.565C719.652 555.565 727.297 562.604 727.297 571.288C727.297 579.972 719.652 587.012 710.222 587.012Z" fill="white"/>
<path fill-rule="evenodd" clip-rule="evenodd" d="M278.181 444.584C285.455 448.971 292.602 451.091 295.957 450.226C304.37 448.056 305.144 417.257 298.634 405.115C292.125 392.974 258.661 387.681 256.974 411.738C256.388 420.088 259.892 427.539 265.068 433.619L255.787 476.909H282.747L278.181 444.584Z" fill="#B28B67"/>
<path fill-rule="evenodd" clip-rule="evenodd" d="M245.22 403.73C244.349 402.867 243.874 401.634 243.463 400.464C243.037 399.248 242.622 398.02 242.339 396.754C241.773 394.226 241.767 391.318 243.57 389.355C245.015 387.781 247.184 387.074 249.186 386.921C250.52 386.819 251.89 387.005 253.168 387.426C254.436 387.843 255.53 388.675 256.759 389.191C256.806 386.466 257.273 383.615 258.654 381.289C259.983 379.05 262.103 377.794 264.516 377.462C266.993 377.121 269.44 377.701 271.657 378.901C272.212 379.201 272.763 379.516 273.289 379.873C273.73 380.171 274.188 380.531 274.705 380.652C275.282 380.787 275.567 380.454 275.942 380.033C276.381 379.54 276.876 379.105 277.4 378.72C279.716 377.016 282.755 376.316 285.438 377.337C286.674 377.807 287.877 378.606 288.715 379.707C289.463 380.689 289.996 382.246 291.028 382.929C291.466 383.22 291.775 382.835 292.174 382.551C292.773 382.124 293.344 381.652 293.95 381.237C294.801 380.653 295.723 380.217 296.71 379.988C298.155 379.654 300.152 379.732 300.565 381.626C300.72 382.337 300.602 383.098 300.551 383.815C300.483 384.799 300.411 385.783 300.325 386.766C300.261 387.512 300.179 388.233 300.038 388.966C299.963 389.356 299.728 390.084 299.895 390.476C300.105 390.965 301.07 390.687 301.482 390.704C302.297 390.737 303.115 390.88 303.868 391.228C304.452 391.499 305.066 391.896 305.312 392.565C305.464 392.976 305.424 393.399 305.352 393.822C305.266 394.33 305.365 394.599 305.429 395.112C306.523 394.573 310.314 393.375 310.791 395.337C310.95 395.99 310.588 396.728 310.312 397.279C309.828 398.246 309.194 399.129 308.545 399.972C307.192 401.729 305.577 403.245 303.839 404.541C305.875 405.447 306.407 408.119 304.643 409.711C303.865 410.414 302.818 410.571 301.836 410.526C301.477 410.509 300.959 410.371 300.676 410.434C300.524 410.467 300.361 410.596 300.15 410.611C298.764 410.706 297.2 410.372 295.845 410.064C293.432 409.516 291.146 408.371 289.28 406.628C288.801 406.181 288.406 405.924 287.762 405.93C287.197 405.936 286.643 406.091 286.079 406.105C284.586 406.143 283.24 405.413 281.854 404.927C281.77 406.801 281.236 408.865 280.47 410.55C279.846 411.925 278.542 412.125 277.26 412.245C273.161 412.631 269.048 412.2 264.945 412.206C268.917 413.105 273.022 413.475 276.959 414.532C278.739 415.01 277.38 416.211 276.619 417.043C275.366 418.413 274.434 420.111 273.788 421.899C271.845 419.364 268.41 417.694 265.367 418.473C262.005 419.333 259.637 423.883 261.787 427.155C263.035 429.054 265.289 429.787 267.165 430.603C265.702 432.125 265.348 434.373 264.467 436.267C264.033 437.201 263.423 438.257 262.452 438.583C262.092 438.703 261.671 438.714 261.387 439.007C261.036 439.37 260.953 439.776 260.504 440.088C258.714 441.333 255.919 441.237 254.332 439.612C252.898 438.142 253.271 435.817 254.469 434.327C252.562 433.531 249.087 432.508 249.845 429.535C245.713 429.26 235.679 422.553 241.225 417.652C238.181 415.93 235.385 411.723 237.34 408.014C238.846 405.158 242.347 403.882 245.22 403.73" fill="#191847"/>
<path fill-rule="evenodd" clip-rule="evenodd" d="M216.046 618.548H302.829L314.2 757.939H185.017L216.046 618.548Z" fill="#C5CFD6"/>
<path fill-rule="evenodd" clip-rule="evenodd" d="M216.046 618.548H242.737L258.712 757.939H185.017L216.046 618.548Z" fill="black" fill-opacity="0.1"/>
<path fill-rule="evenodd" clip-rule="evenodd" d="M350.51 646.164C340.758 666.861 325.519 717.102 325.519 717.102L338.456 723.017C338.456 723.017 371.281 670.204 391.342 634.102C390.407 642.229 389.455 651.379 388.573 660.998C386.483 683.784 388.572 733.014 389.696 747.234C390.403 756.172 402.539 754.3 403.671 747.211C403.863 746.011 404.645 741.796 405.812 735.507C411.533 704.67 426.507 623.964 426.533 604.202C426.544 596.251 411.02 589.107 401.767 594.667C395.412 587.881 383.383 583.97 376.473 595.18C372.08 602.306 361.642 622.538 350.51 646.164Z" fill="#B28B67"/>
<path fill-rule="evenodd" clip-rule="evenodd" d="M326.444 698.502L370.847 593.241C381.484 576.118 411.308 596.725 407.68 606.657C399.445 629.204 357.56 702.199 355.107 708.916L326.444 698.502Z" fill="#1F28CF"/>
<path fill-rule="evenodd" clip-rule="evenodd" d="M327.144 710.717C326.457 709.768 325.116 709.545 324.217 710.295C322.379 711.831 319.57 714.332 318.58 716.047C317.061 718.681 315.023 724.239 315.023 724.239C318.076 726.003 369.893 755.94 369.893 755.94C369.893 755.94 376.114 750.1 371.831 746.874C367.549 743.647 364.763 741.432 364.763 741.432L345.75 715.217C345.419 714.761 344.777 714.668 344.33 715.012L340.295 718.122C340.295 718.122 334.88 717.649 332.213 716.108C330.522 715.131 328.441 712.507 327.144 710.717Z" fill="#E4E4E4"/>
<path fill-rule="evenodd" clip-rule="evenodd" d="M389.724 740.164C388.655 739.686 387.381 740.164 386.978 741.263C386.153 743.513 384.97 747.085 384.97 749.065C384.97 752.106 385.982 757.939 385.982 757.939C389.507 757.939 449.34 757.939 449.34 757.939C449.34 757.939 451.81 749.769 446.489 749.117C441.168 748.466 437.649 747.941 437.649 747.941L408.085 734.752C407.57 734.522 406.968 734.763 406.753 735.284L404.812 739.997C404.812 739.997 399.886 742.297 396.806 742.297C394.854 742.297 391.742 741.066 389.724 740.164Z" fill="#E4E4E4"/>
<path fill-rule="evenodd" clip-rule="evenodd" d="M429.645 612.29C429.645 642.155 415.473 711.817 415.464 718.393L384.97 718.416C384.97 718.416 391.665 625.178 389.718 624.173C387.771 623.169 309.904 631.953 286.551 631.953C252.875 631.953 238.944 610.702 237.813 571.335H304.524C318.107 572.789 388.957 587.09 415.269 592.006C426.533 594.11 429.645 604.063 429.645 612.29Z" fill="#2B44FF"/>
<path fill-rule="evenodd" clip-rule="evenodd" d="M338.609 585.121C317.275 629.583 227.469 599.561 227.469 599.561C227.469 591.857 230.523 584.133 233.73 576.021C237.168 567.323 240.784 558.178 241 548.134C241.398 529.654 244.851 473.663 259.261 454.749C259.524 453.894 259.79 453.037 260.06 452.178L261.058 452.648C261.213 452.487 261.37 452.33 261.528 452.178L292.971 457.043C292.971 471.275 302.072 484.77 310.265 496.918C312.258 499.874 314.198 502.75 315.94 505.538C318.221 509.189 320.796 512.906 323.434 516.714C336.795 536.002 351.791 557.649 338.609 585.121Z" fill="#C1DEE2"/>
<path fill-rule="evenodd" clip-rule="evenodd" d="M298.319 576.716C300.422 565.857 301.786 558.607 302.412 554.967C319.163 573.909 328.84 583.49 331.443 583.71C336.34 584.123 339.957 579.778 340.988 581C342.69 586.058 337.881 598.721 328.689 600.562C324.3 601.441 317.507 592.383 314.708 589.173C313.608 587.911 308.145 583.759 298.319 576.716V576.716ZM327.255 518.818C331.597 518.818 333.929 520.615 336.497 524.239C339.064 527.864 341.494 544.957 337.372 544.957C333.25 544.957 315.979 538.35 315.979 533.907C315.979 529.465 327.763 527.584 327.763 524.239C327.763 520.895 322.912 518.818 327.255 518.818Z" fill="#B28B67"/>
<path fill-rule="evenodd" clip-rule="evenodd" d="M254.175 473.22C243.146 519.233 247.639 558.04 289.552 593.241C289.059 595.009 288.764 596.066 288.764 596.066C239.567 561.657 239.543 519.959 254.175 473.22Z" fill="black" fill-opacity="0.2"/>
<path fill-rule="evenodd" clip-rule="evenodd" d="M594.823 373.65C587.538 378.041 580.38 380.162 577.02 379.296C568.594 377.125 567.82 346.302 574.339 334.151C580.858 321.999 614.372 316.703 616.061 340.779C616.647 349.134 613.139 356.592 607.955 362.676L617.25 406H590.25L594.823 373.65Z" fill="#B28B67"/>
<path fill-rule="evenodd" clip-rule="evenodd" d="M589.728 320.146C593.287 319.562 602.868 319.161 604.635 319.161C605.764 319.161 606.988 319.419 607.657 318.383C608.204 317.533 608.004 316.098 608.167 315.112C608.357 313.968 608.627 312.838 608.899 311.711C609.675 308.504 610.849 305.453 612.49 302.589C615.571 297.215 620.084 293.005 625.781 290.556C632.073 287.851 639.192 287.232 645.959 287.78C653.201 288.367 659.757 290.758 666.595 293.008C673.111 295.152 679.935 295.995 686.75 294.949C693.617 293.894 698.805 290.172 704.596 286.64C710.525 283.024 717.301 280.659 724.31 281.203C730.853 281.71 736.883 284.412 742.293 288.021C747.355 291.397 751.532 295.46 753.89 301.177C756.427 307.327 756.424 314.078 752.253 319.514C746.206 327.392 734.981 329.43 725.643 329.227C720.241 329.11 714.936 328.124 709.836 326.331C703.035 323.938 697.157 319.884 690.795 316.594C687.809 315.05 684.722 313.782 681.487 312.869C678.347 311.983 675.255 311.576 672.413 313.472C669.406 315.479 666.711 317.45 663.271 318.706C659.971 319.91 656.476 320.584 652.96 320.557C646.119 320.504 639.376 318.373 632.732 316.945C627.314 315.781 621.517 314.621 615.993 315.74C613.688 316.207 610.322 317.171 609.489 319.567C623.5 322.106 629.003 339.434 625.053 352.154C622.921 359.02 610.106 367.046 605.124 363.437C601.967 361.15 603.884 358.148 605.124 356.166C607.499 352.371 608.312 347.496 603.917 344.854C600.126 342.575 596.14 347.987 596.064 347.981C595.023 347.899 586.019 342.807 579.817 335.377C573.697 335.74 572.769 331.705 574.23 328.405C575.691 325.106 584.811 320.953 589.728 320.146Z" fill="#191847"/>
<path fill-rule="evenodd" clip-rule="evenodd" d="M635.213 501L592.941 639.467L572.464 757.223H556.408L578.046 501H635.213Z" fill="#997659"/>
<path fill-rule="evenodd" clip-rule="evenodd" d="M650.336 501C647.465 577.026 650.844 616.241 651.486 623.148C652.129 630.055 660.928 674.842 681.76 759.542L664.651 753.655C631.729 675.973 620.51 635.6 616.734 625.399C612.958 615.199 602.929 573.732 586.648 501H650.336Z" fill="#B28B67"/>
<path fill-rule="evenodd" clip-rule="evenodd" d="M678.761 752.204C679.831 751.725 681.106 752.203 681.509 753.303C682.334 755.556 683.517 759.132 683.517 761.115C683.517 764.159 682.504 770 682.504 770C678.979 770 619.146 770 619.146 770C619.146 770 616.677 761.819 621.998 761.167C627.319 760.515 630.838 759.989 630.838 759.989L660.401 746.784C660.916 746.554 661.519 746.795 661.734 747.317L663.675 752.035C663.675 752.035 668.601 754.338 671.681 754.338C673.632 754.338 676.744 753.106 678.761 752.204Z" fill="#E4E4E4"/>
<path fill-rule="evenodd" clip-rule="evenodd" d="M573.168 752.204C574.238 751.725 575.513 752.203 575.916 753.303C576.74 755.556 577.923 759.132 577.923 761.115C577.923 764.159 576.911 770 576.911 770C573.386 770 513.553 770 513.553 770C513.553 770 511.083 761.819 516.404 761.167C521.725 760.515 525.245 759.989 525.245 759.989L554.808 746.784C555.323 746.554 555.926 746.795 556.14 747.317L558.082 752.035C558.082 752.035 563.007 754.338 566.087 754.338C568.039 754.338 571.15 753.106 573.168 752.204Z" fill="#E4E4E4"/>
<path fill-rule="evenodd" clip-rule="evenodd" d="M640.83 501L622.857 571.547H567.959L576.144 501H640.83Z" fill="#69A1AC"/>
<path fill-rule="evenodd" clip-rule="evenodd" d="M650.94 501C659.811 527.642 654.31 571.547 654.31 571.547H598.289L582.884 501H650.94Z" fill="#89C5CC"/>
<path fill-rule="evenodd" clip-rule="evenodd" d="M712.067 536.484C707.873 530.331 679.604 447.535 679.604 447.535L655.222 451.055C655.222 451.055 695.759 537.272 698.075 541.282C701.084 546.491 698.419 555.048 696.612 560.851C696.333 561.748 696.074 562.58 695.86 563.323C699.652 564.415 701.095 562.248 702.616 559.963C704.335 557.383 706.153 554.652 711.569 556.299C713.661 556.935 715.671 557.752 717.635 558.55C724.418 561.308 730.65 563.841 737.81 557.912C738.945 556.972 739.902 553.899 736.295 552.109C727.31 547.651 714.117 539.491 712.067 536.484ZM501.951 532.205L529.19 497.038L542.217 513.669L512.114 537.594C505.704 551.69 501.657 557.96 499.973 556.404C498.553 555.092 498.88 553.39 499.181 551.822C499.416 550.601 499.635 549.46 499 548.65C497.551 546.8 491.124 548.879 485.11 551.113C479.096 553.347 480.104 550.102 481.2 548.329C486.401 542.78 493.318 537.405 501.951 532.205Z" fill="#B28B67"/>
<path fill-rule="evenodd" clip-rule="evenodd" d="M595.56 388.904L585.695 388.608C578.045 444.289 505.204 491.748 503.231 512.438C502.507 520.026 508.321 522.993 505.902 525.613L519.709 533.003C521.482 530.235 526.642 534.117 535.647 529.629C544.653 525.141 604.471 452.309 595.56 388.904Z" fill="#DB2721"/>
<path fill-rule="evenodd" clip-rule="evenodd" d="M611.611 375.212C613.772 374.753 615.896 376.133 616.356 378.294L617.83 385.225C637.917 396.604 688.7 431.904 711.296 507.729C713.67 515.694 712.058 520.366 710.771 524.098C709.89 526.652 709.16 528.766 709.962 531.194L694.209 538.012C693.951 536.172 691.689 535.063 688.77 533.632C684.527 531.551 678.896 528.789 676.019 522.112C673.292 515.782 669.497 507.931 665.06 499.227C666.464 511.383 665.729 522.847 662.012 532.779C652.74 557.557 576.91 542.469 566.058 520.046C560.267 508.08 564.506 496.755 570.113 481.778C577.23 462.765 586.55 437.867 580.356 398.3L577.841 386.475C577.381 384.314 578.76 382.191 580.921 381.732L611.611 375.212Z" fill="#FF4133"/>
</svg>
