<svg width="921" height="1853" viewBox="0 0 921 1853" fill="none" xmlns="http://www.w3.org/2000/svg">
<rect y="1853" width="1853" height="921" rx="100" transform="rotate(-90 0 1853)" fill="#F2F4F8"/>
<rect x="20" y="1834" width="1716" height="881" rx="80" transform="rotate(-90 20 1834)" fill="white"/>
<rect x="360" y="48" width="200" height="20" rx="10" fill="white"/>
<rect x="588" y="48" width="20" height="20" rx="10" fill="white"/>
<rect x="61" y="1286" width="700" height="102" rx="15" fill="#F2F4F8"/>
<rect x="59" y="1598" width="700" height="102" rx="15" fill="#F2F4F8"/>
<rect x="159" y="1442" width="700" height="102" rx="15" fill="#F2F4F8"/>
<rect x="63.5" y="992.5" width="195" height="195" rx="37.5" fill="white" stroke="#F2F4F8" stroke-width="5"/>
<rect x="661.5" y="992.5" width="195" height="195" rx="37.5" fill="white" stroke="#F2F4F8" stroke-width="5"/>
<rect x="362.5" y="992.5" width="195" height="195" rx="37.5" fill="white" stroke="#F2F4F8" stroke-width="5"/>
<rect x="61" y="235" width="314" height="20" rx="10" fill="#565F73" fill-opacity="0.2"/>
<rect x="61" y="303" width="450" height="20" rx="10" fill="#565F73" fill-opacity="0.2"/>
<rect x="771" y="235" width="88" height="88" rx="15" fill="#565F73" fill-opacity="0.2"/>
<rect x="61" y="435" width="798" height="501" rx="50" fill="#F2F4F8"/>
</svg>
