<svg width="549" height="746" viewBox="0 0 549 746" fill="none" xmlns="http://www.w3.org/2000/svg">
<g opacity="0.2">
<path fill-rule="evenodd" clip-rule="evenodd" d="M319 460C446.025 460 549 357.025 549 230C549 102.975 446.025 0 319 0C191.975 0 89 102.975 89 230C89 357.025 191.975 460 319 460Z" fill="#FF9B21"/>
<path fill-rule="evenodd" clip-rule="evenodd" d="M459 746C481.644 746 500 727.644 500 705C500 682.356 481.644 664 459 664C436.356 664 418 682.356 418 705C418 727.644 436.356 746 459 746Z" fill="#2B44FF"/>
</g>
<g filter="url(#filter0_d)">
<rect x="44" y="55.796" width="251" height="516" rx="36.45" transform="rotate(-2 44 55.796)" fill="#F2F2F2"/>
</g>
<path fill-rule="evenodd" clip-rule="evenodd" d="M79.6624 65.5573C66.25 66.0257 55.7569 77.2783 56.2253 90.6906L71.7457 535.138C72.2141 548.551 83.4666 559.044 96.879 558.576L276.444 552.305C289.856 551.837 300.349 540.584 299.881 527.172L284.36 82.7239C283.892 69.3116 272.639 58.8184 259.227 59.2868L231.234 60.2644L231.375 64.3129C231.64 71.9133 225.694 78.2897 218.094 78.5551L122.728 81.8853C115.128 82.1507 108.752 76.2046 108.486 68.6043L108.345 64.5557L79.6624 65.5573Z" fill="#1F28CF"/>
<mask id="mask0" mask-type="alpha" maskUnits="userSpaceOnUse" x="62" y="44" width="338" height="515">
<rect x="62.9884" y="55.1329" width="319" height="504" transform="rotate(-2 62.9884 55.1329)" fill="white"/>
</mask>
<g mask="url(#mask0)">
<path fill-rule="evenodd" clip-rule="evenodd" d="M297.826 171.871C301.162 184.361 306.753 194.239 311.341 196.842C322.847 203.368 356.205 170.521 361.892 150.363C367.578 130.206 336.51 89.0238 309.268 113.536C299.814 122.043 295.786 133.894 295.037 146.015L239.175 183.518L268.705 212.035L297.826 171.871Z" fill="#B28B67"/>
<path fill-rule="evenodd" clip-rule="evenodd" d="M377.432 141.305C371.094 147.868 360.764 148.254 353.945 142.337C349.131 139.897 343.553 136.133 337.925 131.383C336.577 133.806 334.742 136.265 332.352 138.739C330.242 140.924 327.763 143.008 325.046 144.932C325.214 142.464 324.538 140.095 322.982 138.592C318.63 134.389 312.147 135.039 308.48 138.836C303.827 143.654 303.246 149.83 307.043 154.036C296.603 157.519 286.433 157.915 281.374 153.029C271.763 143.748 277.321 124.317 290.644 110.521C291.112 110.036 291.587 109.564 292.067 109.104C286.661 108.192 280.824 108.203 274.945 108.215C262.453 108.239 249.772 108.263 240.625 99.4304C222.324 81.7576 250.655 37.8757 276.224 62.5672C293.612 79.3592 299.721 90.151 303.476 101.013C308.883 98.3243 314.423 97.0238 319.455 97.2384C320.815 97.135 322.492 97.3991 324.41 97.9945C325.615 98.3251 326.77 98.7622 327.863 99.308C333.884 101.97 341.435 107.037 348.87 113.732C350.258 114.982 351.59 116.242 352.861 117.502C359.418 110.754 370.211 110.586 376.993 117.135C383.789 123.698 383.985 134.519 377.432 141.305Z" fill="#191847"/>
<path fill-rule="evenodd" clip-rule="evenodd" d="M36.8032 448.476C36.8032 448.476 93.4102 478.117 137.079 487.399C180.748 496.681 223.717 478.698 223.717 478.698C223.717 478.698 168.493 448.886 130.38 440.784C92.2666 432.683 36.8032 448.476 36.8032 448.476Z" fill="#1F28CF"/>
<path fill-rule="evenodd" clip-rule="evenodd" d="M168.374 510.971C168.111 510.307 167.918 509.604 167.805 508.863C165.459 493.529 112.099 322.135 109.491 292.318L206.213 312.877C208.196 335.547 209.09 475.355 207.547 502.883C211.617 547.687 209.453 689.531 210.866 699.69C212.353 710.377 189.923 716.413 187.124 703.069C182.671 681.835 173.645 623.783 171.514 589.055C169.516 556.498 168.447 527.363 168.374 510.971Z" fill="#997659"/>
<path fill-rule="evenodd" clip-rule="evenodd" d="M85.2678 512.848C43.8798 514.434 -103.602 501.856 -114.06 502.578C-124.817 503.32 -129.263 480.509 -115.764 478.642C-94.285 475.671 -35.7822 470.693 -1.01374 470.978C26.9519 471.206 52.3587 471.943 69.3348 472.82C77.7555 426.363 94.943 314.233 104.197 291.193L189.777 309.384C180.904 331.478 111.532 491.705 101.691 507.127C98.426 512.686 91.9175 514.066 85.2678 512.848V512.848Z" fill="#B28B67"/>
<path fill-rule="evenodd" clip-rule="evenodd" d="M104.473 291.252C104.473 291.252 164.485 287.079 211.522 314.006C211.867 369.955 235.807 397.22 223.388 480.247C160.507 496.437 100.554 433.059 36.1505 448.193C27.6233 406.064 70.7857 318.145 104.473 291.252Z" fill="#2B44FF"/>
<path fill-rule="evenodd" clip-rule="evenodd" d="M301.797 433.301L286.87 367.32L258.227 381.878L284.327 434.201C284.098 457.75 285.643 468.994 288.964 467.931C291.764 467.035 292.408 464.478 293.001 462.123C293.463 460.289 293.894 458.576 295.29 457.867C298.477 456.247 305.996 463.243 312.848 470.186C319.699 477.13 320.396 472.009 320.026 468.86C316.427 457.869 310.35 446.016 301.797 433.301ZM24.9116 335.268C34.6465 329.481 102.87 255.767 102.87 255.767L132.772 275.353C132.772 275.353 46.8778 346.833 41.1081 350.872C33.6131 356.12 31.7832 369.628 30.5424 378.788C30.3504 380.205 30.1726 381.518 29.99 382.68C24.0624 381.75 23.467 377.835 22.8392 373.708C22.1302 369.046 21.38 364.113 12.8589 362.904C9.5667 362.436 6.27133 362.271 3.05178 362.11C-8.06922 361.554 -18.2856 361.042 -24.3398 348.268C-25.2996 346.243 -24.6422 341.392 -18.5215 341.242C-3.2728 340.869 20.1525 338.097 24.9116 335.268Z" fill="#B28B67"/>
<path fill-rule="evenodd" clip-rule="evenodd" d="M269.644 185.469L283.428 191.4C270.185 258.549 276.033 331.174 300.973 409.276L229.075 431.951C216.128 335.397 224.869 250.131 269.644 185.469Z" fill="#191847"/>
<path fill-rule="evenodd" clip-rule="evenodd" d="M114.469 306.032L224.929 377.765C224.929 377.765 247.073 259.628 289.383 194.477L259.282 167.88C205.782 192.934 164.758 239.915 114.469 306.032Z" fill="#DDE3E9"/>
<path fill-rule="evenodd" clip-rule="evenodd" d="M33.5589 320.702C134.026 192.443 258.55 167.405 258.55 167.405L258.562 167.446C258.571 167.441 258.58 167.436 258.59 167.431L260.765 168.843C264.582 171.513 272.343 177.05 272.343 177.05L265.472 205.257C239.459 248.109 170.398 384.323 170.398 384.323L98.0957 337.369C94.4267 343.288 90.8535 349.386 87.398 355.666L33.5589 320.702Z" fill="#2F3676"/>
<path fill-rule="evenodd" clip-rule="evenodd" d="M97.7415 337.941C113.678 312.138 131.442 289.729 149.242 270.569C134.563 297.488 118.647 331.014 117.885 351.023L97.7415 337.941Z" fill="black" fill-opacity="0.1"/>
<path fill-rule="evenodd" clip-rule="evenodd" d="M142.581 303.92L189.05 310.53L178.285 327.107L142.581 303.92Z" fill="white" fill-opacity="0.2"/>
</g>
<path fill-rule="evenodd" clip-rule="evenodd" d="M398.396 290.53C390.854 291.068 384.329 289.86 382.017 287.818C376.221 282.698 388.046 257.974 398.113 250.98C408.179 243.987 436.86 253.317 428.482 273.067C425.575 279.921 419.787 284.411 413.225 287.139L403.104 325.202L381.72 314.307L398.396 290.53Z" fill="#B28B67"/>
<path fill-rule="evenodd" clip-rule="evenodd" d="M395.437 232.812C396.673 231.481 398.543 230.755 400.35 231.178C400.788 231.28 401.209 231.446 401.602 231.667C401.742 231.745 401.762 231.807 401.88 231.741C401.968 231.692 402.062 231.511 402.127 231.434C402.329 231.194 402.546 230.966 402.778 230.754C403.569 230.032 404.536 229.529 405.556 229.21C407.463 228.613 409.621 228.629 411.486 229.384C412.507 229.797 413.397 230.451 414.16 231.24C414.554 231.648 414.914 232.09 415.25 232.547C415.352 232.684 415.623 233.244 415.771 233.291C415.934 233.344 416.428 233.124 416.598 233.092C418.707 232.702 420.812 233.198 422.693 234.174C424.816 235.276 426.814 236.428 427.93 238.633C428.166 239.1 428.371 239.584 428.55 240.075C428.645 240.333 428.731 240.595 428.805 240.86C428.85 241.02 428.89 241.181 428.926 241.343C428.986 241.618 428.928 241.669 429.22 241.647C430.341 241.563 431.456 241.825 432.392 242.457C432.948 242.832 433.434 243.304 433.862 243.817C434.008 243.992 434.277 244.53 434.475 244.634C434.67 244.738 435.246 244.66 435.487 244.688C436.791 244.842 438.024 245.345 439.082 246.12C440.173 246.919 441.1 247.989 441.773 249.158C442.097 249.72 442.342 250.285 442.443 250.927C442.486 251.205 442.51 251.486 442.58 251.759C442.621 251.918 442.757 252.129 442.738 252.295C442.749 252.196 444.343 252.361 444.485 252.392C445.244 252.559 445.908 252.942 446.454 253.491C447.48 254.526 448.077 255.976 448.473 257.353C448.676 258.06 448.798 258.79 448.843 259.523C448.865 259.875 448.869 260.227 448.857 260.579C448.852 260.75 448.807 260.944 448.829 261.111C448.857 261.326 448.93 261.367 449.093 261.538C449.922 262.406 450.537 263.473 450.825 264.638C451.117 265.818 451.064 267.059 450.716 268.218C450.695 268.287 450.57 268.549 450.59 268.602C450.616 268.674 450.829 268.756 450.902 268.805C451.152 268.971 451.392 269.152 451.621 269.347C452.043 269.705 452.425 270.11 452.756 270.554C454.045 272.285 454.462 274.511 454.149 276.617C453.82 278.827 452.707 280.984 451.007 282.451C450.732 282.688 450.439 282.904 450.128 283.092C449.938 283.207 449.904 283.19 449.881 283.402C449.857 283.637 449.898 283.899 449.89 284.137C449.864 284.915 449.731 285.685 449.514 286.431C449.159 287.655 448.667 288.881 447.884 289.898C447.521 290.37 447.091 290.793 446.595 291.126C446.342 291.296 446.073 291.442 445.792 291.561C445.646 291.622 445.498 291.676 445.347 291.724C445.26 291.751 445.159 291.762 445.078 291.8C444.88 291.892 444.92 291.753 444.866 292.01C444.792 292.37 444.829 292.781 444.792 293.149C444.754 293.528 444.702 293.905 444.639 294.281C444.512 295.042 444.346 295.798 444.109 296.533C443.655 297.944 442.91 299.314 441.684 300.197C441.159 300.574 440.552 300.83 439.916 300.946C439.604 301.002 439.286 301.026 438.969 301.016C438.806 301.012 438.625 300.953 438.501 301.05C438.367 301.153 438.324 301.473 438.269 301.636C437.783 303.059 437.168 304.5 436.112 305.598C435.139 306.61 433.801 307.26 432.407 307.43C429.702 307.762 427.027 306.302 425.465 304.138C425.058 303.574 424.721 302.959 424.473 302.31C422.497 303.29 420.111 302.012 418.627 300.69C416.779 299.042 415.822 296.686 415.829 294.234C413.644 295.189 411.084 293.214 411.057 290.956C411.05 290.403 411.159 289.853 411.34 289.333C411.435 289.059 411.589 288.813 411.691 288.546C411.822 288.205 411.767 287.781 411.802 287.405C411.87 286.674 412.04 285.969 412.368 285.309C412.54 284.964 412.753 284.653 412.959 284.329C413.144 284.038 413.205 283.71 413.31 283.383C413.812 283.752 414.554 283.944 415.15 284.048C415.735 284.15 416.418 283.982 416.966 283.789C418.239 283.342 419.326 282.46 420.251 281.502C422.28 279.398 423.491 276.251 421.682 273.608C420.84 272.377 417.343 270.597 415.792 270.204C414.162 269.79 410.862 272.171 410.626 272.432C410.48 272.594 410.387 272.839 410.151 272.877C409.633 272.958 409.251 272.163 409.092 271.785C408.817 271.134 408.748 270.418 408.729 269.718C408.689 268.194 408.818 266.647 409.114 265.152C409.343 263.999 409.69 262.868 409.818 261.696C409.945 260.53 409.806 259.36 409.18 258.344C408.499 257.238 407.528 256.344 406.636 255.413C405.752 254.49 404.929 253.494 404.501 252.274C404.407 252.005 404.324 251.729 404.281 251.448C404.248 251.226 404.291 250.856 404.167 250.662C403.972 250.361 403.357 250.573 403.042 250.603C401.485 250.751 399.972 251.293 398.6 252.028C397.236 252.759 396.035 253.52 394.866 254.516C393.999 255.256 393.144 256.333 392.068 256.752C391.587 256.94 389.209 255.989 388.625 255.315C388.042 254.64 387.613 253.442 387.614 252.829C387.616 252.201 387.835 251.622 388.221 251.131C388.448 250.842 388.731 250.608 388.963 250.328C389.158 250.094 389.34 249.871 389.592 249.693C390.072 249.358 390.658 249.24 391.232 249.358C390.954 248.608 390.815 247.808 390.843 247.008C390.873 246.177 391.025 245.225 391.325 244.45C391.569 243.82 391.98 243.247 392.57 242.9C393.189 242.535 393.977 242.493 394.676 242.425C394.192 241.385 393.893 240.268 393.759 239.131C393.497 236.92 393.875 234.493 395.437 232.812Z" fill="#191847"/>
<path fill-rule="evenodd" clip-rule="evenodd" d="M384 399L334.918 523.227L301.999 628.25H289L339.326 399L384 399Z" fill="#997659"/>
<path fill-rule="evenodd" clip-rule="evenodd" d="M393.883 399C394.406 442.654 402.028 501.427 403.246 504.149C404.464 506.87 487.324 573.358 487.324 573.358L478.371 582.939C478.371 582.939 380.603 525.934 376.079 518.331C371.555 510.728 356.826 440.763 345 399H393.883Z" fill="#B28B67"/>
<path fill-rule="evenodd" clip-rule="evenodd" d="M485.884 571.564C486.211 570.44 487.396 569.771 488.496 570.173C490.502 570.906 493.436 572.092 494.736 573.183C496.808 574.922 500.204 578.948 500.204 578.948C498.187 581.352 463.949 622.154 463.949 622.154C463.949 622.154 456.968 619.166 459.569 615.165C462.17 611.164 463.826 608.464 463.826 608.464L471.724 580.87C471.879 580.328 472.451 580.022 472.988 580.192L477.202 581.529C477.202 581.529 481.588 579.485 483.35 577.384C484.423 576.106 485.335 573.448 485.884 571.564Z" fill="#E4E4E4"/>
<path fill-rule="evenodd" clip-rule="evenodd" d="M304.55 622.284C305.622 621.813 306.896 622.29 307.295 623.391C308.023 625.398 309 628.409 309 630.106C309 632.811 308.099 638 308.099 638C304.961 638 251.697 638 251.697 638C251.697 638 249.498 630.732 254.235 630.152C258.972 629.573 262.105 629.106 262.105 629.106L288.32 617.419C288.835 617.189 289.437 617.43 289.652 617.951L291.337 622.039C291.337 622.039 295.722 624.085 298.463 624.085C300.132 624.085 302.754 623.074 304.55 622.284Z" fill="#E4E4E4"/>
<path fill-rule="evenodd" clip-rule="evenodd" d="M351 617.433L289.196 610.725L335 399H390.356L351 617.433Z" fill="#69A1AC"/>
<path fill-rule="evenodd" clip-rule="evenodd" d="M474.54 557.9L434 605.886C434 605.886 369.95 535.932 359.317 514.596C348.685 493.26 340.201 399 340.201 399H402.522C402.522 399 407.156 481.926 408.769 485.785C410.383 489.644 474.54 557.9 474.54 557.9Z" fill="#89C5CC"/>
<path fill-rule="evenodd" clip-rule="evenodd" d="M282.325 335.141L313.634 359.347L298.821 370.93L277.524 344.176C264.974 338.481 259.392 334.885 260.777 333.388C261.945 332.125 263.461 332.416 264.857 332.683C265.945 332.891 266.96 333.086 267.682 332.521C269.33 331.233 267.48 325.52 265.492 320.175C263.504 314.829 266.393 315.725 267.972 316.698C272.912 321.32 277.696 327.468 282.325 335.141ZM433.847 398.027L454.714 399.039C459.337 437.943 462.52 459.423 464.263 463.482C465.541 466.458 475.665 475.826 482.747 481.247C485.589 483.422 484.234 485.945 483.084 486.573C475.833 490.538 470.827 487.267 465.378 483.705C463.8 482.674 462.185 481.619 460.468 480.708C456.023 478.35 453.974 480.427 452.037 482.39C450.323 484.128 448.696 485.776 445.574 484.178C445.887 483.565 446.254 482.883 446.65 482.146C449.21 477.383 452.985 470.36 451.244 465.298C450.351 462.7 444.552 440.277 433.847 398.027Z" fill="#B28B67"/>
<path fill-rule="evenodd" clip-rule="evenodd" d="M399.338 306.217L391.306 302.686C368.611 315.857 350.535 356.587 336.95 359.188C324.107 361.647 309.07 352.42 291.404 340.618L282.152 352.412C295.026 375.88 328.565 401.357 346.081 395.954C374.087 387.315 392.802 336.188 399.338 306.217Z" fill="#DB2721"/>
<path fill-rule="evenodd" clip-rule="evenodd" d="M409.624 420.777C409.624 420.777 359.161 408.195 335.385 402.267C331.993 401.421 333.853 396.682 334.96 394.332C347.732 367.216 377.492 341.974 387.617 301.366L409.868 303.347C420.477 336.25 417.858 372.85 409.624 420.777Z" fill="#DDE3E9"/>
<path fill-rule="evenodd" clip-rule="evenodd" d="M411.005 303.631L411.249 303.692C451.901 345.266 469.488 398.385 464.013 463.049L447.692 462.217C440.378 447.638 432.557 424.812 424.229 393.74C424.773 411.342 423.957 429.054 421.038 445.265L354.212 428.604C349.426 392.685 402.77 301.578 402.77 301.578L407.384 302.728L411.005 303.631Z" fill="#FF4133"/>
<defs>
<filter id="filter0_d" x="0" y="35.0363" width="336.855" height="592.445" filterUnits="userSpaceOnUse" color-interpolation-filters="sRGB">
<feFlood flood-opacity="0" result="BackgroundImageFix"/>
<feColorMatrix in="SourceAlpha" type="matrix" values="0 0 0 0 0 0 0 0 0 0 0 0 0 0 0 0 0 0 127 0"/>
<feOffset dx="-10" dy="22"/>
<feGaussianBlur stdDeviation="17"/>
<feColorMatrix type="matrix" values="0 0 0 0 0 0 0 0 0 0 0 0 0 0 0 0 0 0 0.1 0"/>
<feBlend mode="normal" in2="BackgroundImageFix" result="effect1_dropShadow"/>
<feBlend mode="normal" in="SourceGraphic" in2="effect1_dropShadow" result="shape"/>
</filter>
</defs>
</svg>
