<svg width="944" height="498" viewBox="0 0 944 498" fill="none" xmlns="http://www.w3.org/2000/svg">
<g opacity="0.2">
<path fill-rule="evenodd" clip-rule="evenodd" d="M211.464 308.228C295.75 308.228 364.078 239.9 364.078 155.614C364.078 71.3276 295.75 3 211.464 3C127.177 3 58.8499 71.3276 58.8499 155.614C58.8499 239.9 127.177 308.228 211.464 308.228Z" fill="#FF9B21"/>
<path fill-rule="evenodd" clip-rule="evenodd" d="M304.359 498C319.384 498 331.564 485.82 331.564 470.795C331.564 455.77 319.384 443.59 304.359 443.59C289.334 443.59 277.154 455.77 277.154 470.795C277.154 485.82 289.334 498 304.359 498Z" fill="#2B44FF"/>
</g>
<g filter="url(#filter0_d)">
<rect x="44" y="40.0228" width="166.548" height="342.386" rx="36.45" transform="rotate(-2 44 40.0228)" fill="#F2F2F2"/>
</g>
<path fill-rule="evenodd" clip-rule="evenodd" d="M75.8345 46.2145C62.4222 46.6829 51.929 57.9354 52.3974 71.3478L62.1251 349.914C62.5935 363.326 73.846 373.82 87.2584 373.351L190.064 369.761C203.477 369.293 213.97 358.04 213.502 344.628L203.774 66.0616C203.305 52.6492 192.053 42.1561 178.641 42.6244L168.237 42.9877C168.465 49.5145 163.359 54.9903 156.832 55.2182L98.9258 57.2403C92.3991 57.4682 86.9233 52.362 86.6954 45.8352L75.8345 46.2145Z" fill="#1F28CF"/>
<mask id="mask0" mask-type="alpha" maskUnits="userSpaceOnUse" x="56" y="32" width="224" height="342">
<rect x="56.5996" y="39.5828" width="211.669" height="334.424" transform="rotate(-2 56.5996 39.5828)" fill="white"/>
</mask>
<g mask="url(#mask0)">
<path fill-rule="evenodd" clip-rule="evenodd" d="M212.423 117.043C214.637 125.331 218.347 131.885 221.391 133.612C229.026 137.943 251.16 116.147 254.933 102.772C258.707 89.3964 238.092 62.0707 220.016 78.3355C213.742 83.9805 211.07 91.8438 210.573 99.8868L173.506 124.771L193.101 143.693L212.423 117.043Z" fill="#B28B67"/>
<path fill-rule="evenodd" clip-rule="evenodd" d="M265.245 96.7614C261.039 101.116 254.185 101.372 249.661 97.4459C246.466 95.8272 242.765 93.3298 239.031 90.1774C238.136 91.7852 236.918 93.4169 235.333 95.0588C233.933 96.5086 232.288 97.8915 230.485 99.1678C230.596 97.5301 230.148 95.9584 229.116 94.9614C226.228 92.1723 221.926 92.6036 219.493 95.1229C216.405 98.3203 216.02 102.418 218.539 105.209C211.612 107.52 204.864 107.783 201.507 104.54C195.13 98.3822 198.818 85.4893 207.658 76.3349C207.969 76.0133 208.284 75.6999 208.602 75.395C205.015 74.7897 201.142 74.7972 197.241 74.8047C188.952 74.8207 180.538 74.8369 174.469 68.9759C162.325 57.2493 181.124 28.132 198.089 44.5157C209.628 55.6579 213.681 62.8187 216.173 70.0263C219.76 68.242 223.436 67.379 226.775 67.5214C227.678 67.4528 228.791 67.628 230.063 68.0231C230.862 68.2425 231.629 68.5325 232.354 68.8947C236.35 70.6607 241.36 74.0232 246.293 78.4656C247.214 79.2951 248.098 80.1313 248.941 80.9673C253.292 76.4895 260.454 76.3778 264.954 80.7238C269.463 85.0781 269.593 92.2584 265.245 96.7614Z" fill="#191847"/>
<path fill-rule="evenodd" clip-rule="evenodd" d="M39.2248 300.581C39.2248 300.581 76.7857 320.249 105.762 326.408C134.738 332.567 163.249 320.634 163.249 320.634C163.249 320.634 126.606 300.853 101.317 295.478C76.027 290.102 39.2248 300.581 39.2248 300.581Z" fill="#1F28CF"/>
<path fill-rule="evenodd" clip-rule="evenodd" d="M126.527 342.049C126.352 341.609 126.225 341.142 126.15 340.651C124.593 330.475 89.1864 216.749 87.4561 196.965L151.635 210.606C152.95 225.648 153.544 318.416 152.52 336.682C155.22 366.412 153.785 460.531 154.722 467.272C155.709 474.363 140.826 478.368 138.969 469.513C136.014 455.424 130.025 416.904 128.611 393.861C127.285 372.258 126.576 352.926 126.527 342.049Z" fill="#997659"/>
<path fill-rule="evenodd" clip-rule="evenodd" d="M71.3828 343.294C43.9203 344.347 -53.9397 336.001 -60.8788 336.48C-68.0169 336.972 -70.9668 321.837 -62.0097 320.598C-47.7574 318.626 -8.93858 315.323 14.1317 315.512C32.688 315.664 49.5464 316.152 60.8107 316.734C66.3981 285.909 77.8027 211.506 83.9429 196.218L140.729 208.288C134.841 222.948 88.8103 329.265 82.28 339.498C80.1138 343.187 75.7952 344.103 71.3828 343.294V343.294Z" fill="#B28B67"/>
<path fill-rule="evenodd" clip-rule="evenodd" d="M84.1265 196.257C84.1265 196.257 123.947 193.488 155.157 211.355C155.386 248.479 171.271 266.571 163.031 321.662C121.307 332.406 81.5261 290.351 38.7917 300.393C33.1335 272.439 61.7735 214.102 84.1265 196.257Z" fill="#2B44FF"/>
<path fill-rule="evenodd" clip-rule="evenodd" d="M215.059 290.512L205.154 246.731L186.148 256.391L203.466 291.109C203.314 306.735 204.34 314.196 206.543 313.491C208.401 312.896 208.829 311.199 209.222 309.637C209.529 308.419 209.815 307.283 210.741 306.812C212.856 305.738 217.845 310.38 222.391 314.987C226.937 319.594 227.4 316.196 227.154 314.107C224.766 306.814 220.734 298.949 215.059 290.512ZM31.3342 225.463C37.7937 221.623 83.0627 172.712 83.0627 172.712L102.904 185.707C102.904 185.707 45.9096 233.137 42.0812 235.817C37.108 239.3 35.8938 248.263 35.0705 254.341C34.9431 255.281 34.8251 256.152 34.7039 256.923C30.7707 256.306 30.3756 253.708 29.9591 250.97C29.4887 247.876 28.9909 244.603 23.3367 243.801C21.1523 243.491 18.9657 243.381 16.8294 243.274C9.45015 242.905 2.67119 242.566 -1.346 234.09C-1.98287 232.746 -1.54663 229.527 2.51464 229.427C12.6328 229.18 28.1763 227.34 31.3342 225.463Z" fill="#B28B67"/>
<path fill-rule="evenodd" clip-rule="evenodd" d="M193.723 126.066L202.87 130.002C194.082 174.557 197.963 222.747 214.511 274.571L166.805 289.616C158.213 225.549 164.013 168.972 193.723 126.066Z" fill="#191847"/>
<path fill-rule="evenodd" clip-rule="evenodd" d="M90.7591 206.064L164.053 253.662C164.053 253.662 178.747 175.273 206.821 132.043L186.848 114.395C151.349 131.019 124.128 162.193 90.7591 206.064Z" fill="#DDE3E9"/>
<path fill-rule="evenodd" clip-rule="evenodd" d="M37.072 215.798C103.736 130.693 186.363 114.08 186.363 114.08L186.37 114.107C186.376 114.103 186.383 114.1 186.389 114.097L187.832 115.034C190.365 116.805 195.515 120.479 195.515 120.479L190.956 139.196C173.695 167.63 127.87 258.013 127.87 258.013L79.8947 226.857C77.4602 230.785 75.0892 234.831 72.7963 238.998L37.072 215.798Z" fill="#2F3676"/>
<path fill-rule="evenodd" clip-rule="evenodd" d="M79.6595 227.237C90.2339 210.116 102.021 195.246 113.832 182.533C104.092 200.395 93.5312 222.641 93.0252 235.917L79.6595 227.237Z" fill="black" fill-opacity="0.1"/>
<path fill-rule="evenodd" clip-rule="evenodd" d="M109.412 204.663L140.246 209.049L133.104 220.048L109.412 204.663Z" fill="white" fill-opacity="0.2"/>
</g>
<path fill-rule="evenodd" clip-rule="evenodd" d="M279.156 195.778C274.151 196.135 269.822 195.333 268.288 193.978C264.442 190.581 272.288 174.175 278.967 169.535C285.647 164.895 304.678 171.086 299.119 184.19C297.19 188.739 293.349 191.718 288.995 193.528L282.279 218.784L268.09 211.555L279.156 195.778Z" fill="#B28B67"/>
<path fill-rule="evenodd" clip-rule="evenodd" d="M277.192 157.48C278.012 156.597 279.253 156.115 280.452 156.395C280.743 156.463 281.022 156.574 281.283 156.72C281.376 156.772 281.389 156.813 281.467 156.769C281.526 156.737 281.588 156.616 281.631 156.565C281.765 156.406 281.909 156.255 282.063 156.114C282.588 155.635 283.23 155.301 283.906 155.09C285.172 154.693 286.603 154.704 287.841 155.205C288.519 155.479 289.109 155.913 289.615 156.437C289.877 156.708 290.116 157.001 290.339 157.304C290.406 157.395 290.586 157.766 290.684 157.798C290.792 157.833 291.12 157.687 291.233 157.666C292.633 157.407 294.029 157.736 295.278 158.384C296.686 159.115 298.012 159.879 298.752 161.342C298.909 161.652 299.045 161.973 299.164 162.299C299.227 162.47 299.284 162.644 299.333 162.82C299.363 162.926 299.39 163.033 299.413 163.14C299.454 163.323 299.415 163.357 299.609 163.342C300.352 163.287 301.092 163.46 301.713 163.879C302.082 164.128 302.404 164.441 302.689 164.782C302.785 164.898 302.964 165.255 303.095 165.324C303.225 165.393 303.607 165.341 303.767 165.36C304.632 165.462 305.45 165.796 306.152 166.31C306.876 166.84 307.491 167.55 307.938 168.326C308.153 168.699 308.315 169.074 308.382 169.5C308.411 169.684 308.427 169.871 308.473 170.052C308.501 170.158 308.591 170.298 308.578 170.408C308.586 170.342 309.643 170.451 309.738 170.472C310.241 170.582 310.682 170.836 311.044 171.201C311.725 171.888 312.121 172.85 312.384 173.764C312.519 174.233 312.599 174.717 312.629 175.204C312.644 175.437 312.646 175.671 312.639 175.904C312.635 176.017 312.605 176.146 312.62 176.257C312.639 176.4 312.687 176.427 312.795 176.541C313.345 177.116 313.753 177.824 313.945 178.598C314.138 179.38 314.103 180.204 313.872 180.973C313.858 181.019 313.775 181.193 313.788 181.227C313.806 181.275 313.947 181.33 313.995 181.362C314.161 181.473 314.32 181.593 314.472 181.722C314.752 181.96 315.006 182.229 315.225 182.523C316.081 183.671 316.358 185.149 316.15 186.546C315.932 188.012 315.193 189.444 314.065 190.417C313.883 190.574 313.688 190.718 313.482 190.842C313.355 190.919 313.333 190.908 313.318 191.048C313.302 191.204 313.329 191.378 313.324 191.536C313.307 192.052 313.218 192.563 313.074 193.058C312.839 193.87 312.512 194.684 311.993 195.358C311.752 195.672 311.467 195.953 311.137 196.173C310.97 196.286 310.791 196.383 310.605 196.462C310.508 196.503 310.409 196.539 310.309 196.57C310.252 196.588 310.185 196.595 310.131 196.62C310 196.682 310.026 196.59 309.99 196.76C309.941 196.999 309.966 197.271 309.941 197.515C309.916 197.767 309.882 198.017 309.84 198.267C309.755 198.772 309.645 199.274 309.488 199.761C309.187 200.697 308.692 201.607 307.879 202.192C307.531 202.442 307.128 202.613 306.705 202.689C306.499 202.727 306.287 202.742 306.077 202.736C305.969 202.733 305.849 202.694 305.767 202.758C305.678 202.827 305.65 203.039 305.613 203.147C305.29 204.091 304.882 205.047 304.182 205.776C303.536 206.448 302.648 206.879 301.723 206.992C299.928 207.212 298.153 206.244 297.117 204.807C296.847 204.433 296.623 204.025 296.458 203.594C295.147 204.245 293.564 203.397 292.58 202.519C291.353 201.426 290.719 199.863 290.723 198.236C289.273 198.869 287.575 197.559 287.556 196.06C287.552 195.694 287.624 195.329 287.744 194.984C287.807 194.802 287.909 194.639 287.978 194.461C288.065 194.235 288.027 193.954 288.051 193.705C288.096 193.219 288.209 192.751 288.427 192.313C288.54 192.085 288.682 191.878 288.819 191.663C288.942 191.47 288.982 191.252 289.052 191.036C289.384 191.28 289.877 191.408 290.273 191.477C290.661 191.545 291.114 191.433 291.478 191.305C292.322 191.008 293.043 190.423 293.657 189.787C295.004 188.392 295.807 186.304 294.607 184.55C294.048 183.733 291.727 182.552 290.699 182.291C289.617 182.016 287.427 183.596 287.271 183.769C287.174 183.877 287.112 184.039 286.956 184.064C286.611 184.118 286.358 183.591 286.252 183.34C286.07 182.908 286.025 182.433 286.012 181.968C285.985 180.957 286.071 179.931 286.268 178.939C286.419 178.174 286.65 177.423 286.734 176.646C286.819 175.872 286.727 175.095 286.311 174.421C285.859 173.687 285.215 173.094 284.623 172.476C284.037 171.864 283.491 171.203 283.207 170.393C283.144 170.215 283.089 170.032 283.061 169.845C283.038 169.698 283.067 169.452 282.985 169.324C282.856 169.124 282.448 169.265 282.238 169.285C281.205 169.383 280.201 169.743 279.291 170.23C278.386 170.716 277.589 171.22 276.813 171.882C276.238 172.372 275.671 173.087 274.956 173.365C274.637 173.489 273.059 172.859 272.672 172.411C272.285 171.964 272.001 171.169 272.002 170.762C272.002 170.345 272.148 169.961 272.404 169.635C272.555 169.443 272.742 169.288 272.896 169.102C273.026 168.947 273.146 168.799 273.314 168.681C273.632 168.459 274.021 168.38 274.402 168.459C274.218 167.961 274.125 167.43 274.144 166.899C274.164 166.348 274.264 165.716 274.464 165.202C274.626 164.784 274.898 164.404 275.29 164.173C275.7 163.931 276.224 163.904 276.687 163.858C276.366 163.168 276.168 162.427 276.079 161.673C275.905 160.206 276.156 158.595 277.192 157.48Z" fill="#191847"/>
<path fill-rule="evenodd" clip-rule="evenodd" d="M269.603 267.752L237.035 350.181L215.192 419.868H206.567L239.96 267.752L269.603 267.752Z" fill="#997659"/>
<path fill-rule="evenodd" clip-rule="evenodd" d="M276.161 267.752C276.508 296.718 281.566 335.717 282.374 337.522C283.182 339.328 338.163 383.445 338.163 383.445L332.222 389.803C332.222 389.803 267.349 351.977 264.347 346.933C261.345 341.888 251.572 295.463 243.725 267.752H276.161Z" fill="#B28B67"/>
<path fill-rule="evenodd" clip-rule="evenodd" d="M336.993 382.956C337.35 381.841 338.533 381.167 339.625 381.589C340.871 382.071 342.357 382.722 343.081 383.329C344.455 384.483 346.709 387.154 346.709 387.154C345.37 388.749 322.653 415.823 322.653 415.823C322.653 415.823 318.021 413.841 319.746 411.186C321.472 408.531 322.571 406.739 322.571 406.739L327.716 388.763C327.871 388.221 328.443 387.914 328.98 388.084L331.446 388.867C331.446 388.867 334.357 387.51 335.526 386.117C336.112 385.418 336.626 384.098 336.993 382.956Z" fill="#E4E4E4"/>
<path fill-rule="evenodd" clip-rule="evenodd" d="M216.21 416.196C217.294 415.754 218.571 416.226 218.95 417.334C219.382 418.598 219.838 420.155 219.838 421.1C219.838 422.894 219.24 426.338 219.24 426.338C217.158 426.338 181.815 426.338 181.815 426.338C181.815 426.338 180.356 421.515 183.499 421.131C186.642 420.746 188.721 420.436 188.721 420.436L205.8 412.822C206.314 412.593 206.917 412.834 207.131 413.355L208.117 415.747C208.117 415.747 211.027 417.104 212.846 417.104C213.758 417.104 215.1 416.65 216.21 416.196Z" fill="#E4E4E4"/>
<path fill-rule="evenodd" clip-rule="evenodd" d="M247.706 412.691L206.697 408.24L237.09 267.752H273.821L247.706 412.691Z" fill="#69A1AC"/>
<path fill-rule="evenodd" clip-rule="evenodd" d="M329.68 373.189L302.78 405.029C302.78 405.029 260.28 358.612 253.225 344.454C246.17 330.297 240.541 267.752 240.541 267.752H281.893C281.893 267.752 284.968 322.777 286.039 325.337C287.109 327.898 329.68 373.189 329.68 373.189Z" fill="#89C5CC"/>
<path fill-rule="evenodd" clip-rule="evenodd" d="M202.138 225.379L222.912 241.441L213.084 249.126L198.952 231.374C190.625 227.595 186.921 225.209 187.84 224.216C188.615 223.378 189.621 223.571 190.547 223.748C191.269 223.886 191.943 224.015 192.422 223.641C193.515 222.786 192.287 218.995 190.968 215.448C189.65 211.901 191.566 212.496 192.614 213.142C195.892 216.209 199.067 220.288 202.138 225.379ZM302.679 267.106L316.524 267.778C319.592 293.592 321.704 307.845 322.861 310.538C323.709 312.513 330.427 318.729 335.126 322.326C337.012 323.77 336.112 325.443 335.349 325.86C330.538 328.491 327.216 326.32 323.6 323.957C322.554 323.273 321.482 322.573 320.343 321.969C317.394 320.404 316.034 321.782 314.749 323.085C313.611 324.238 312.532 325.331 310.46 324.271C310.668 323.864 310.911 323.411 311.174 322.922C312.872 319.762 315.378 315.102 314.222 311.743C313.629 310.02 309.782 295.141 302.679 267.106Z" fill="#B28B67"/>
<path fill-rule="evenodd" clip-rule="evenodd" d="M279.78 206.187L274.451 203.844C259.392 212.584 247.398 239.61 238.384 241.335C229.862 242.967 219.884 236.844 208.162 229.013L202.023 236.839C210.565 252.411 232.82 269.316 244.443 265.731C263.025 259.999 275.444 226.074 279.78 206.187Z" fill="#DB2721"/>
<path fill-rule="evenodd" clip-rule="evenodd" d="M286.605 282.202C286.605 282.202 253.121 273.853 237.345 269.92C235.094 269.358 236.329 266.214 237.063 264.655C245.538 246.662 265.285 229.913 272.003 202.968L286.767 204.283C293.807 226.115 292.069 250.4 286.605 282.202Z" fill="#DDE3E9"/>
<path fill-rule="evenodd" clip-rule="evenodd" d="M287.522 204.471L287.684 204.511C314.658 232.097 326.328 267.344 322.695 310.251L311.865 309.699C307.012 300.025 301.823 284.88 296.297 264.262C296.657 275.942 296.117 287.694 294.18 298.451L249.838 287.395C246.662 263.561 282.058 203.109 282.058 203.109L285.12 203.872L287.522 204.471Z" fill="#FF4133"/>
<rect x="480" width="396" height="346" rx="8" fill="#F2F2F2"/>
<path d="M480 8C480 3.58172 483.582 0 488 0H868C872.418 0 876 3.58172 876 8V27H480V8Z" fill="#C5CFD6"/>
<path fill-rule="evenodd" clip-rule="evenodd" d="M493 18C495.209 18 497 16.2091 497 14C497 11.7909 495.209 10 493 10C490.791 10 489 11.7909 489 14C489 16.2091 490.791 18 493 18Z" fill="#F2F2F2"/>
<path fill-rule="evenodd" clip-rule="evenodd" d="M505 18C507.209 18 509 16.2091 509 14C509 11.7909 507.209 10 505 10C502.791 10 501 11.7909 501 14C501 16.2091 502.791 18 505 18Z" fill="#F2F2F2"/>
<path fill-rule="evenodd" clip-rule="evenodd" d="M517 18C519.209 18 521 16.2091 521 14C521 11.7909 519.209 10 517 10C514.791 10 513 11.7909 513 14C513 16.2091 514.791 18 517 18Z" fill="#F2F2F2"/>
<rect x="790" y="132" width="70" height="194" rx="8" fill="white"/>
<rect x="808" y="150" width="34" height="26" rx="4" fill="#DDE3E9"/>
<rect x="808" y="184" width="34" height="25" rx="4" fill="#AFB9C5"/>
<rect x="808" y="217" width="34" height="25" rx="4" fill="#DDE3E9"/>
<rect x="808" y="283" width="34" height="25" rx="4" fill="#DDE3E9"/>
<rect x="808" y="250" width="34" height="25" rx="4" fill="#C5CFD6"/>
<rect x="790" y="43" width="70" height="81" rx="8" fill="white"/>
<path fill-rule="evenodd" clip-rule="evenodd" d="M825 90C833.837 90 841 82.8366 841 74C841 65.1634 833.837 58 825 58C816.163 58 809 65.1634 809 74C809 82.8366 816.163 90 825 90Z" fill="#DDE3E9"/>
<rect x="800" y="94" width="50" height="6" rx="3" fill="#DDE3E9"/>
<rect x="808" y="104" width="34" height="6" rx="3" fill="#DDE3E9"/>
<rect x="496" y="43" width="286" height="47" rx="4" fill="white"/>
<rect x="505" y="57.1" width="228" height="7.05" rx="3" fill="#DDE3E9"/>
<rect x="505" y="68.85" width="153.041" height="7.05" rx="3" fill="#DDE3E9"/>
<path fill-rule="evenodd" clip-rule="evenodd" d="M751.435 73.5C755.301 73.5 758.435 70.366 758.435 66.5C758.435 62.634 755.301 59.5 751.435 59.5C747.569 59.5 744.435 62.634 744.435 66.5C744.435 70.366 747.569 73.5 751.435 73.5Z" fill="#DDE3E9"/>
<path fill-rule="evenodd" clip-rule="evenodd" d="M751.435 69.5C753.092 69.5 754.435 68.1569 754.435 66.5C754.435 64.8431 753.092 63.5 751.435 63.5C749.778 63.5 748.435 64.8431 748.435 66.5C748.435 68.1569 749.778 69.5 751.435 69.5Z" fill="#F2F2F2"/>
<rect x="496" y="98" width="286" height="39" rx="4" fill="white"/>
<rect x="505" y="109.7" width="228" height="5.85" rx="2.925" fill="#DDE3E9"/>
<rect x="505" y="119.45" width="153.041" height="5.85" rx="2.925" fill="#DDE3E9"/>
<path fill-rule="evenodd" clip-rule="evenodd" d="M751.435 124.5C755.301 124.5 758.435 121.366 758.435 117.5C758.435 113.634 755.301 110.5 751.435 110.5C747.569 110.5 744.435 113.634 744.435 117.5C744.435 121.366 747.569 124.5 751.435 124.5Z" fill="#DDE3E9"/>
<path fill-rule="evenodd" clip-rule="evenodd" d="M751.435 120.5C753.092 120.5 754.435 119.157 754.435 117.5C754.435 115.843 753.092 114.5 751.435 114.5C749.778 114.5 748.435 115.843 748.435 117.5C748.435 119.157 749.778 120.5 751.435 120.5Z" fill="#F2F2F2"/>
<rect x="496" y="145" width="286" height="39" rx="4" fill="white"/>
<rect x="505" y="156.7" width="228" height="5.85" rx="2.925" fill="#DDE3E9"/>
<rect x="505" y="166.45" width="153.041" height="5.85" rx="2.925" fill="#DDE3E9"/>
<path fill-rule="evenodd" clip-rule="evenodd" d="M751.435 171.5C755.301 171.5 758.435 168.366 758.435 164.5C758.435 160.634 755.301 157.5 751.435 157.5C747.569 157.5 744.435 160.634 744.435 164.5C744.435 168.366 747.569 171.5 751.435 171.5Z" fill="#DDE3E9"/>
<path fill-rule="evenodd" clip-rule="evenodd" d="M751.435 167.5C753.092 167.5 754.435 166.157 754.435 164.5C754.435 162.843 753.092 161.5 751.435 161.5C749.778 161.5 748.435 162.843 748.435 164.5C748.435 166.157 749.778 167.5 751.435 167.5Z" fill="#AFB9C5"/>
<rect x="496" y="286" width="286" height="39" rx="4" fill="white"/>
<rect x="505" y="297.7" width="228" height="5.85" rx="2.925" fill="#DDE3E9"/>
<rect x="505" y="307.45" width="153.041" height="5.85" rx="2.925" fill="#DDE3E9"/>
<path fill-rule="evenodd" clip-rule="evenodd" d="M751.435 312.5C755.301 312.5 758.435 309.366 758.435 305.5C758.435 301.634 755.301 298.5 751.435 298.5C747.569 298.5 744.435 301.634 744.435 305.5C744.435 309.366 747.569 312.5 751.435 312.5Z" fill="#DDE3E9"/>
<path fill-rule="evenodd" clip-rule="evenodd" d="M751.435 308.5C753.092 308.5 754.435 307.157 754.435 305.5C754.435 303.843 753.092 302.5 751.435 302.5C749.778 302.5 748.435 303.843 748.435 305.5C748.435 307.157 749.778 308.5 751.435 308.5Z" fill="#F2F2F2"/>
<rect x="496" y="239" width="286" height="39" rx="4" fill="white"/>
<rect x="505" y="250.7" width="228" height="5.85" rx="2.925" fill="#DDE3E9"/>
<rect x="505" y="260.45" width="153.041" height="5.85" rx="2.925" fill="#DDE3E9"/>
<path fill-rule="evenodd" clip-rule="evenodd" d="M751.435 265.5C755.301 265.5 758.435 262.366 758.435 258.5C758.435 254.634 755.301 251.5 751.435 251.5C747.569 251.5 744.435 254.634 744.435 258.5C744.435 262.366 747.569 265.5 751.435 265.5Z" fill="#DDE3E9"/>
<path fill-rule="evenodd" clip-rule="evenodd" d="M751.435 261.5C753.092 261.5 754.435 260.157 754.435 258.5C754.435 256.843 753.092 255.5 751.435 255.5C749.778 255.5 748.435 256.843 748.435 258.5C748.435 260.157 749.778 261.5 751.435 261.5Z" fill="#F2F2F2"/>
<rect x="496" y="192" width="286" height="39" rx="4" fill="white"/>
<rect x="505" y="203.7" width="228" height="5.85" rx="2.925" fill="#DDE3E9"/>
<rect x="505" y="213.45" width="153.041" height="5.85" rx="2.925" fill="#DDE3E9"/>
<path fill-rule="evenodd" clip-rule="evenodd" d="M751.435 218.5C755.301 218.5 758.435 215.366 758.435 211.5C758.435 207.634 755.301 204.5 751.435 204.5C747.569 204.5 744.435 207.634 744.435 211.5C744.435 215.366 747.569 218.5 751.435 218.5Z" fill="#DDE3E9"/>
<path fill-rule="evenodd" clip-rule="evenodd" d="M751.435 214.5C753.092 214.5 754.435 213.157 754.435 211.5C754.435 209.843 753.092 208.5 751.435 208.5C749.778 208.5 748.435 209.843 748.435 211.5C748.435 213.157 749.778 214.5 751.435 214.5Z" fill="#F2F2F2"/>
<path fill-rule="evenodd" clip-rule="evenodd" d="M533.145 182.309C539.334 184.937 545.175 185.806 547.712 184.76C554.074 182.136 551.298 157.976 544.857 149.203C538.416 140.43 511.579 139.983 512.898 158.974C513.356 165.565 516.924 171.003 521.653 175.184L519.126 210.046L540.279 207.073L533.145 182.309Z" fill="#B28B67"/>
<path fill-rule="evenodd" clip-rule="evenodd" d="M535.049 140.04C532.035 139.568 527.798 139.86 526.061 140.309C526.728 137.77 526.751 135.042 526.06 132.486C525.39 130.002 523.954 128.009 522.589 125.901C521.96 124.929 521.267 123.972 520.339 123.291C519.394 122.598 518.267 122.211 517.127 122.111C515.961 122.009 514.783 122.196 513.686 122.592C513.2 122.767 512.783 123.059 512.31 123.254C511.826 123.455 511.538 123.175 511.129 122.912C510.143 122.276 508.802 122.082 507.671 122.104C506.402 122.129 505.134 122.499 504.002 123.075C502.9 123.636 501.878 124.438 501.173 125.498C500.859 125.969 500.587 126.494 500.442 127.052C500.382 127.281 500.385 127.411 500.18 127.52C499.99 127.622 499.756 127.657 499.559 127.756C497.657 128.711 496.166 130.489 495.514 132.595C495.133 133.823 495.162 135.888 495.552 138.152C495.941 140.416 498.835 146.06 501.065 147.954C503.056 149.644 505.762 150.563 508.28 150.779C506.92 152.851 506.166 155.308 505.699 157.764C505.191 160.433 505.028 163.154 505.209 165.878C505.381 168.466 505.744 171.178 506.699 173.6C507.592 175.866 509.067 177.62 511.251 178.557C512.251 178.986 513.301 179.267 514.352 179.511C515.388 179.751 516.426 179.98 517.485 180.047C519.49 180.175 521.725 179.791 523.008 178.034C523.471 177.4 523.967 176.616 524.266 175.88C524.374 175.615 524.437 175.443 524.231 175.228C523.984 174.97 523.619 174.797 523.322 174.61C521.63 173.544 520.453 171.969 519.932 169.974C519.403 167.949 519.585 165.215 521.465 164.034C523.787 162.577 526.694 163.467 529.063 164.344C529.536 160.919 531.041 157.684 533.842 155.75C536.94 153.61 540.737 152.877 543.961 150.962C544.801 150.463 545.65 149.911 546.2 149.057C546.43 148.7 546.694 148.242 546.745 147.806C546.811 147.233 546.389 146.82 546.052 146.428C544.266 144.349 538.063 140.513 535.049 140.04Z" fill="#191847"/>
<path fill-rule="evenodd" clip-rule="evenodd" d="M526.7 279.93L592.833 390.159L642.413 483.349H653.092L570.02 279.93L526.7 279.93Z" fill="#997659"/>
<path fill-rule="evenodd" clip-rule="evenodd" d="M638.566 478.149C637.493 477.686 636.221 478.161 635.826 479.261C635.189 481.036 634.39 483.551 634.39 484.995C634.39 487.395 635.192 492 635.192 492C637.985 492 685.39 492 685.39 492C685.39 492 687.346 485.551 683.131 485.036C678.915 484.522 676.126 484.108 676.126 484.108L652.897 473.783C652.383 473.555 651.782 473.795 651.567 474.315L650.11 477.837C650.11 477.837 646.207 479.653 643.768 479.653C642.348 479.653 640.153 478.834 638.566 478.149Z" fill="#E4E4E4"/>
<path fill-rule="evenodd" clip-rule="evenodd" d="M628.643 468.426L649.238 462.215C649.238 462.215 635.703 421.876 616.061 373.431C596.418 324.986 573.87 279.93 573.87 279.93H515.703C515.703 279.93 540.772 336.924 568.856 383.503C596.939 430.082 628.643 468.426 628.643 468.426Z" fill="#DB2721"/>
<path fill-rule="evenodd" clip-rule="evenodd" d="M522.354 279.93C516.112 318.665 504.074 368.154 502.937 369.681C502.18 370.699 474.913 379.809 421.137 397.009L423.444 406.398C487.572 397.173 521.362 390.016 524.814 384.927C529.992 377.293 555.846 316.987 565.86 279.93H522.354Z" fill="#B28B67"/>
<path fill-rule="evenodd" clip-rule="evenodd" d="M440.04 388.893L444.104 404.015C492.068 408.209 521.456 405.178 532.269 394.923C543.083 384.668 555.407 346.337 569.241 279.93H513.776C505.01 334.308 500.11 362.639 499.075 364.922C498.039 367.204 478.361 375.195 440.04 388.893Z" fill="#FF4133"/>
<path fill-rule="evenodd" clip-rule="evenodd" d="M425.12 395.589C425.392 394.449 424.7 393.275 423.544 393.078C421.68 392.761 419.06 392.414 417.635 392.664C415.265 393.081 410.856 394.668 410.856 394.668C411.34 397.41 419.572 443.955 419.572 443.955C419.572 443.955 426.282 444.756 426.058 440.527C425.834 436.299 425.759 433.489 425.759 433.489L431.923 408.895C432.06 408.347 431.717 407.795 431.166 407.674L427.436 406.856C427.436 406.856 424.965 403.34 424.541 400.944C424.295 399.554 424.72 397.265 425.12 395.589Z" fill="#E4E4E4"/>
<path fill-rule="evenodd" clip-rule="evenodd" d="M589.267 201.703L561.024 222.706L574.02 233.207L593.396 209.792C604.654 204.929 609.678 201.823 608.469 200.473C607.449 199.335 606.096 199.57 604.849 199.786C603.878 199.955 602.972 200.112 602.339 199.6C600.892 198.432 602.63 193.392 604.484 188.679C606.337 183.966 603.752 184.717 602.332 185.557C597.863 189.583 593.508 194.965 589.267 201.703ZM623.319 220.818L610.916 230.066L613.571 243.403C613.571 243.403 621.394 235.917 628.588 232.784C637.762 228.788 641.34 226.219 645.172 219.637C647.223 216.115 648.445 209.443 645.778 207.701C644.754 207.033 641.623 209.391 638.428 211.798C635.993 213.632 633.521 215.494 631.917 216.065C629.758 216.834 629.614 213.924 629.5 211.599C629.417 209.93 629.35 208.563 628.563 209.072C624.639 209.692 623.319 220.818 623.319 220.818Z" fill="#997659"/>
<path fill-rule="evenodd" clip-rule="evenodd" d="M545.603 221.079C556.302 219.46 570.273 215.196 584.163 203.405L592.022 215.875C582.968 227.758 569.382 238.385 556.402 239.841C546.173 240.987 539.239 229.432 545.603 221.079Z" fill="#2026A2"/>
<path fill-rule="evenodd" clip-rule="evenodd" d="M529.522 316.342C519.149 316.45 509.618 316.548 504.224 318.417C495.169 299.14 498.554 285.727 501.678 273.344C503.561 265.881 505.35 258.792 504.264 251.02C501.1 228.388 514.43 190.993 517.112 190.616L517.882 190.508L539.133 187.521L541.566 187.179C544.628 201.03 551.425 215.536 558.266 230.136C559.863 233.546 561.463 236.96 563.019 240.373C581.356 241.897 618.851 222.351 618.851 222.351C618.851 222.351 631.701 241.499 632.18 250.355C610.891 265.545 591.953 273.646 575.783 276.277C577.647 285.8 577.759 295.095 574.996 303.99C571.295 315.909 548.934 316.141 529.522 316.342Z" fill="#1F28CF"/>
<path fill-rule="evenodd" clip-rule="evenodd" d="M794.415 182.073C789.117 186.213 783.701 188.564 780.979 188.21C774.154 187.322 770.583 163.267 774.534 153.126C778.485 142.985 804.292 135.607 807.933 154.292C809.196 160.777 807.158 166.953 803.672 172.216L815.135 205.236L793.934 207.839L794.415 182.073Z" fill="#B28B67"/>
<path fill-rule="evenodd" clip-rule="evenodd" d="M785.272 140.678C788.01 139.878 795.495 138.641 796.883 138.47C797.769 138.362 798.755 138.446 799.181 137.569C799.529 136.852 799.233 135.747 799.267 134.96C799.306 134.046 799.409 133.135 799.515 132.227C799.816 129.641 800.444 127.14 801.458 124.739C803.36 120.235 806.499 116.504 810.737 114.038C815.418 111.314 820.948 110.142 826.315 109.919C832.058 109.681 837.435 110.92 843.021 112.022C848.343 113.072 853.783 113.075 859.034 111.598C864.324 110.111 868.04 106.697 872.248 103.374C876.556 99.971 881.649 97.4663 887.205 97.2161C892.391 96.9828 897.386 98.5163 901.981 100.82C906.28 102.975 909.95 105.753 912.351 110.001C914.934 114.571 915.581 119.857 912.828 124.514C908.838 131.265 900.22 133.942 892.867 134.684C888.615 135.113 884.354 134.853 880.177 133.94C874.607 132.723 869.602 130.116 864.29 128.154C861.797 127.233 859.251 126.538 856.623 126.135C854.073 125.744 851.606 125.723 849.556 127.482C847.388 129.343 845.461 131.145 842.881 132.46C840.406 133.722 837.726 134.586 834.962 134.904C829.586 135.522 824.086 134.504 818.732 134.027C814.366 133.638 809.702 133.288 805.472 134.697C803.708 135.285 801.157 136.364 800.733 138.32C811.979 138.957 817.966 151.991 816.087 162.331C815.073 167.911 805.782 175.43 801.522 173.084C798.824 171.598 800.04 169.064 800.824 167.393C802.324 164.193 802.493 160.298 798.788 158.653C795.593 157.235 792.983 161.856 792.923 161.858C792.097 161.894 784.539 158.776 778.954 153.558C774.184 154.432 773.067 151.363 773.897 148.638C774.727 145.914 781.489 141.784 785.272 140.678Z" fill="#191847"/>
<path fill-rule="evenodd" clip-rule="evenodd" d="M840.187 279.93C838.582 301.766 735.2 366.056 734.597 367.86C734.195 369.063 766.776 443.888 766.776 443.888L757.739 447.389C757.739 447.389 707.765 368.144 710.332 359.7C714.007 347.611 790.544 280.162 790.544 280.162L840.187 279.93Z" fill="#B28B67"/>
<path fill-rule="evenodd" clip-rule="evenodd" d="M764.398 432.622L749.643 437.977C718.531 402.979 706.336 374.102 708.559 359.389C710.783 344.676 788.495 279.983 788.495 279.983L841.245 279.983C839.445 330.554 743.623 368.053 742.341 370.208C741.059 372.363 753.673 393.469 764.398 432.622Z" fill="#2F3676"/>
<path fill-rule="evenodd" clip-rule="evenodd" d="M767.271 442.24C768.121 441.438 769.48 441.451 770.229 442.35C771.436 443.801 773.05 445.891 773.545 447.248C774.368 449.503 775.194 454.104 775.194 454.104C772.57 455.056 728.024 471.221 728.024 471.221C728.024 471.221 723.973 465.828 727.758 463.907C731.543 461.986 734.021 460.646 734.021 460.646L752.307 443.023C752.712 442.633 753.36 442.654 753.74 443.069L756.317 445.882C756.317 445.882 760.607 446.257 762.9 445.425C764.234 444.941 766.014 443.424 767.271 442.24Z" fill="#E4E4E4"/>
<path fill-rule="evenodd" clip-rule="evenodd" d="M828.3 279.93L874.354 390.159L919.618 483.349H908.938L792.1 279.93H828.3Z" fill="#997659"/>
<path fill-rule="evenodd" clip-rule="evenodd" d="M917.574 478.149C918.647 477.686 919.919 478.161 920.314 479.261C920.951 481.036 921.75 483.551 921.75 484.995C921.75 487.395 920.948 492 920.948 492C918.155 492 870.75 492 870.75 492C870.75 492 868.794 485.551 873.009 485.036C877.225 484.522 880.013 484.108 880.013 484.108L903.243 473.783C903.757 473.555 904.358 473.795 904.573 474.315L906.03 477.837C906.03 477.837 909.932 479.653 912.372 479.653C913.792 479.653 915.987 478.834 917.574 478.149Z" fill="#E4E4E4"/>
<path fill-rule="evenodd" clip-rule="evenodd" d="M915.53 463.99L891.801 468.426C873.454 441.533 796.669 331.263 788.25 279.93H841.077C869.191 317.038 898.041 436.652 915.53 463.99Z" fill="#5C63AB"/>
<path fill-rule="evenodd" clip-rule="evenodd" d="M713.218 253.245L746.947 263.33L738.329 277.639L712.107 262.258C699.864 261.535 694.079 260.333 694.754 258.652C695.322 257.234 696.674 256.992 697.92 256.769C698.89 256.596 699.795 256.434 700.215 255.737C701.174 254.144 697.816 250.002 694.461 246.207C691.106 242.412 693.792 242.234 695.415 242.538C700.992 244.794 706.926 248.363 713.218 253.245ZM859.164 257.104L876.827 251.301C893.064 282.053 902.554 298.833 905.295 301.639C907.306 303.697 918.703 308.235 926.315 310.471C929.37 311.368 929.048 313.889 928.293 314.776C923.531 320.367 918.328 319.251 912.665 318.036C911.026 317.684 909.348 317.324 907.631 317.116C903.186 316.578 902.145 318.951 901.161 321.193C900.29 323.178 899.464 325.061 896.36 324.731C896.425 324.124 896.512 323.442 896.606 322.705C897.216 317.946 898.115 310.926 895.056 307.288C893.486 305.421 881.522 288.693 859.164 257.104Z" fill="#B28B67"/>
<path fill-rule="evenodd" clip-rule="evenodd" d="M801.235 192.042L793.436 191.674C778.774 209.807 776.731 249.298 766.272 255.776C756.383 261.901 740.948 259.045 722.508 254.892L718.578 267.606C736.753 282.947 772.74 293.374 785.574 283.323C806.093 267.254 805.354 218.947 801.235 192.042Z" fill="#DB2721"/>
<path fill-rule="evenodd" clip-rule="evenodd" d="M846.285 283.658C846.285 283.658 800.343 289.299 778.697 291.957C775.609 292.336 775.645 287.819 775.816 285.52C777.789 258.994 794.475 228.613 789.95 191.755L809.071 186.313C828.371 210.189 837.856 241.339 846.285 283.658Z" fill="#DDE3E9"/>
<path fill-rule="evenodd" clip-rule="evenodd" d="M810.106 186.186L810.329 186.159C857.355 207.655 888.896 246.056 904.949 301.361L891.122 305.867C880.399 296.119 866.628 279.701 849.807 256.615C855.867 271.022 860.833 285.952 863.573 300.309L802.733 307.779C787.312 279.55 802.61 187.106 802.61 187.106L806.81 186.591L810.106 186.186Z" fill="#FF4133"/>
<path fill-rule="evenodd" clip-rule="evenodd" d="M644.165 188.709C644.164 188.714 644.164 188.72 644.162 188.726C644.164 188.721 644.163 188.7 644.165 188.709" fill="#C5CFD6"/>
<path fill-rule="evenodd" clip-rule="evenodd" d="M644.162 188.717C644.163 188.718 644.162 188.721 644.163 188.723C644.161 188.718 644.166 188.701 644.162 188.717" fill="#C5CFD6"/>
<path fill-rule="evenodd" clip-rule="evenodd" d="M644.176 188.627C644.174 188.648 644.169 188.669 644.167 188.69C644.168 188.679 644.17 188.671 644.171 188.66C644.133 188.937 644.157 188.757 644.176 188.627" fill="#C5CFD6"/>
<path fill-rule="evenodd" clip-rule="evenodd" d="M644.168 188.691C644.167 188.701 644.165 188.711 644.164 188.721C644.149 188.782 644.168 188.691 644.168 188.691" fill="#C5CFD6"/>
<path fill-rule="evenodd" clip-rule="evenodd" d="M644.163 188.718C644.163 188.717 644.163 188.717 644.163 188.715C644.163 188.717 644.163 188.717 644.163 188.718" fill="#C5CFD6"/>
<path fill-rule="evenodd" clip-rule="evenodd" d="M644.16 188.726C644.157 188.739 644.176 188.674 644.16 188.726Z" fill="#C5CFD6"/>
<path fill-rule="evenodd" clip-rule="evenodd" d="M644.163 188.718L644.164 188.715C644.163 188.716 644.163 188.717 644.163 188.718" fill="#C5CFD6"/>
<rect x="582.392" y="148.676" width="100" height="66" rx="4" transform="rotate(-14 582.392 148.676)" fill="#2B44FF"/>
<path fill-rule="evenodd" clip-rule="evenodd" d="M623.726 158.234L607.113 210.815L663.08 196.861L623.726 158.234Z" fill="black" fill-opacity="0.2"/>
<path fill-rule="evenodd" clip-rule="evenodd" d="M655.625 163.256L639.21 202.812L688.688 190.476L655.625 163.256Z" fill="black" fill-opacity="0.2"/>
<path fill-rule="evenodd" clip-rule="evenodd" d="M666.323 161.063C671.414 159.794 674.512 154.638 673.243 149.547C671.974 144.456 666.818 141.358 661.727 142.627C656.636 143.897 653.538 149.052 654.807 154.143C656.077 159.234 661.233 162.332 666.323 161.063Z" fill="white"/>
<defs>
<filter id="filter0_d" x="0" y="22.2104" width="246.396" height="415.99" filterUnits="userSpaceOnUse" color-interpolation-filters="sRGB">
<feFlood flood-opacity="0" result="BackgroundImageFix"/>
<feColorMatrix in="SourceAlpha" type="matrix" values="0 0 0 0 0 0 0 0 0 0 0 0 0 0 0 0 0 0 127 0"/>
<feOffset dx="-10" dy="22"/>
<feGaussianBlur stdDeviation="17"/>
<feColorMatrix type="matrix" values="0 0 0 0 0 0 0 0 0 0 0 0 0 0 0 0 0 0 0.1 0"/>
<feBlend mode="normal" in2="BackgroundImageFix" result="effect1_dropShadow"/>
<feBlend mode="normal" in="SourceGraphic" in2="effect1_dropShadow" result="shape"/>
</filter>
</defs>
</svg>
