<svg width="1920" height="931" viewBox="0 0 1920 931" fill="none" xmlns="http://www.w3.org/2000/svg">
<path fill-rule="evenodd" clip-rule="evenodd" d="M150.799 2391.31C-69.7228 2369.87 -243.487 2196.1 -264.929 1975.58C-314.993 1460.71 -181.824 930.384 134.258 490.311C263.45 310.439 500.741 246.68 702.299 338.604C930.71 442.774 1144.55 588.732 1332.34 776.513C1527.97 972.146 1678.21 1196.07 1783.09 1435.28C1871.45 1636.79 1805.88 1871.57 1626.54 1998.93C1188.36 2310.11 661.966 2441.01 150.799 2391.31Z" fill="white" fill-opacity="0.07"/>
<path fill-rule="evenodd" clip-rule="evenodd" d="M2062.73 525.82C2217.27 510.794 2339.04 389.02 2354.07 234.478C2389.16 -126.352 2295.83 -498.004 2074.32 -806.41C1983.78 -932.465 1817.48 -977.148 1676.23 -912.728C1516.16 -839.725 1366.3 -737.436 1234.7 -605.838C1097.6 -468.737 992.308 -311.812 918.804 -144.172C856.885 -2.95389 902.836 161.583 1028.52 250.837C1335.6 468.916 1704.5 560.65 2062.73 525.82Z" fill="white" fill-opacity="0.07"/>
</svg>
