<svg width="708" height="654" viewBox="0 0 708 654" fill="none" xmlns="http://www.w3.org/2000/svg">
<path fill-rule="evenodd" clip-rule="evenodd" d="M175.929 207.866C184.843 211.643 193.255 212.891 196.91 211.385C206.074 207.609 202.083 172.864 192.808 160.249C183.534 147.634 144.88 147 146.774 174.311C147.432 183.789 152.568 191.609 159.378 197.622L155.729 247.76L186.196 243.478L175.929 207.866Z" fill="#B28B67"/>
<path fill-rule="evenodd" clip-rule="evenodd" d="M184.678 152.213C183.921 151.897 182.338 151.228 181.554 151.015C181.369 150.963 180.021 150.265 179.989 150.28C179.105 150.722 176.58 152.251 176.489 153.277C176.464 153.358 176.439 153.433 176.413 153.5C176.129 154.242 175.879 154.997 175.646 155.759C175.135 157.431 174.735 159.159 174.36 160.871C173.631 164.204 173.067 167.589 172.585 170.971C172.095 174.413 171.755 177.873 171.315 181.322C170.681 186.286 169.665 191.183 169.04 196.143C168.64 199.31 168.614 202.461 169.272 205.57C169.28 205.607 169.286 205.645 169.295 205.682C169.299 205.698 169.303 205.713 169.306 205.729C169.411 206.206 169.532 206.683 169.67 207.158C169.79 207.564 169.91 207.972 170.035 208.379C170.889 205.862 171.429 203.144 172.043 200.551C172.103 200.297 172.158 200.042 172.212 199.786C172.451 199.244 172.697 198.705 172.947 198.167C174.521 194.774 176.105 191.392 177.59 187.955C180.259 181.772 182.879 175.474 186.258 169.667C187.256 167.952 188.285 166.257 189.266 164.531C189.824 163.549 190.362 162.555 190.876 161.548C191.244 160.828 192.922 158.262 192.005 156.991C191.536 156.34 186.639 153.035 184.678 152.213Z" fill="#2C2C2C"/>
<path fill-rule="evenodd" clip-rule="evenodd" d="M181.791 151.098C182.501 151.23 181.973 149.87 181.247 149.468C177.879 147.604 166.12 148.409 156.283 151.926C149.692 154.283 142.289 158.883 137.499 164.133C133.18 168.865 130.731 175.823 129.881 182.332C128.989 189.167 129.678 196.065 131.638 202.669C132.069 204.12 132.745 205.465 133.215 206.878C133.745 208.47 134.12 210.021 134.877 211.535C135.342 212.462 136.032 213.338 136.449 214.277C136.924 215.349 136.875 216.409 136.802 217.577C136.684 219.482 136.473 221.395 136.054 223.256C135.425 226.052 134.558 228.709 134.182 231.571C133.683 235.379 131.114 247.904 134.673 250.719L193.727 242.42C191.673 238.591 186.541 234.466 185.03 230.271C184.14 227.8 183.105 222.275 183.021 222.08C180.407 213.136 177.196 209.14 175.346 207.786C173.496 206.432 171.26 206.25 170.955 204.893C169.696 199.281 171.199 193.522 172.118 187.989C173.212 181.395 173.755 174.719 174.914 168.138C175.427 165.224 178.101 150.415 181.791 151.098Z" fill="#8991DC"/>
<path fill-rule="evenodd" clip-rule="evenodd" d="M162.644 181.251C160.814 171.708 160.765 167.886 162.004 160.54L160.631 160.733C158.852 163.829 158.236 172.622 161.551 181.405L162.644 181.251ZM135.67 184.58C135.348 184.03 135.019 183.468 134.679 182.89L133.865 183.431C138.029 193.072 142.467 200.343 154.883 205.216L155.69 204.466C143.74 198.38 140.608 193.025 135.67 184.58ZM150.987 172.791L150.987 172.791C154.426 185.263 156.607 193.173 167.879 206.488L166.879 206.953C154.87 194.823 151.713 183.988 149.332 170.509L150.296 170.294C150.534 171.147 150.763 171.979 150.987 172.791ZM146.131 212.873L145.39 214.08C149.998 214.384 153.502 217.234 157.52 220.501C161.771 223.957 166.596 227.881 173.911 229.75L175.085 228.795C166.989 225.95 162.932 222.561 159.39 219.602C155.723 216.538 152.607 213.936 146.131 212.873Z" fill="black" fill-opacity="0.2"/>
<path fill-rule="evenodd" clip-rule="evenodd" d="M315.623 443.546C313.238 469.503 315.622 525.298 316.905 541.393C317.712 551.508 331.561 548.86 332.854 540.764C333.073 539.393 333.965 534.575 335.297 527.385C341.826 492.133 358.913 399.871 358.943 377.437C358.957 367.15 335.95 358.924 326.746 371.35C319.178 366.059 308.437 364.64 301.815 375.327C296.802 383.417 284.89 406.384 272.186 433.203C261.057 456.698 243.667 513.732 243.667 513.732L258.43 520.446C258.43 520.446 294.899 462.08 317.861 421.158C317.099 428.2 316.341 435.739 315.623 443.546Z" fill="#B28B67"/>
<path fill-rule="evenodd" clip-rule="evenodd" d="M244.722 492.617L295.394 373.126C307.533 353.688 341.568 377.081 337.428 388.355C328.03 413.951 280.232 496.814 277.432 504.439L244.722 492.617Z" fill="#1F28CF"/>
<path fill-rule="evenodd" clip-rule="evenodd" d="M360.225 386.766C360.225 420.635 345.312 500.249 345.301 507.707L309.174 506.494C309.174 506.494 318.646 402.666 317.163 401.962C314.938 400.907 225.958 414.221 199.271 415.226C160.789 416.676 144.869 393.175 143.577 348.578L218.119 348.578C218.119 348.578 313.729 359.939 343.797 364.381C356.669 366.283 360.225 377.436 360.225 386.766Z" fill="#2B44FF"/>
<path fill-rule="evenodd" clip-rule="evenodd" d="M244.977 509.078C244.06 508.356 242.712 508.51 242.05 509.474C240.522 511.7 238.07 515.503 237.502 517.768C236.664 521.117 236.175 527.821 236.175 527.821C240.078 528.79 306.331 545.233 306.331 545.233C306.331 545.233 311.32 536.912 305.608 534.732C299.896 532.552 296.143 531.007 296.143 531.007L266.93 508.264C266.487 507.919 265.845 508.008 265.51 508.46L261.975 513.232C261.975 513.232 255.886 514.412 252.476 513.566C250.223 513.006 246.944 510.628 244.977 509.078Z" fill="#E4E4E4"/>
<path fill-rule="evenodd" clip-rule="evenodd" d="M317.933 520.643C316.868 520.162 315.599 520.637 315.191 521.731C314.249 524.259 312.794 528.54 312.794 530.874C312.794 534.326 313.949 540.948 313.949 540.948C317.971 540.948 386.253 540.948 386.253 540.948C386.253 540.948 389.071 531.673 382.999 530.934C376.927 530.194 372.91 529.598 372.91 529.598L339.037 514.566C338.523 514.338 337.922 514.578 337.707 515.098L335.437 520.58C335.437 520.58 329.815 523.191 326.301 523.191C323.979 523.191 320.218 521.673 317.933 520.643Z" fill="#E4E4E4"/>
<rect x="314.075" y="540.948" width="67.9429" height="8.93265" rx="4" fill="#2F3676"/>
<path d="M126.912 365.915C126.912 360.392 131.389 355.915 136.912 355.915H279.719C285.241 355.915 289.719 360.392 289.719 365.915V431.204H130.912C128.703 431.204 126.912 429.413 126.912 427.204V365.915Z" fill="#2F3676"/>
<path fill-rule="evenodd" clip-rule="evenodd" d="M276.899 355.915H282.112C287.007 355.915 291.182 359.458 291.979 364.287L320.485 537.12H306.787" fill="#2F3676"/>
<path fill-rule="evenodd" clip-rule="evenodd" d="M314.075 562.642C326.819 562.642 337.15 552.358 337.15 539.672C337.15 526.986 326.819 516.703 314.075 516.703C301.332 516.703 291.001 526.986 291.001 539.672C291.001 552.358 301.332 562.642 314.075 562.642Z" fill="#191847"/>
<path fill-rule="evenodd" clip-rule="evenodd" d="M241.005 463.107C241.005 516.669 197.385 560.09 143.577 560.09C89.7696 560.09 46.1498 516.669 46.1498 463.107C46.1498 409.544 89.7696 366.124 143.577 366.124C197.385 366.124 241.005 409.544 241.005 463.107ZM223.058 463.107C223.058 506.802 187.473 542.224 143.577 542.224C99.6816 542.224 64.097 506.802 64.097 463.107C64.097 419.411 99.6816 383.989 143.577 383.989C187.473 383.989 223.058 419.411 223.058 463.107Z" fill="#191847"/>
<rect x="138.45" y="378.885" width="10.2555" height="168.444" fill="#191847"/>
<rect width="10.2322" height="168.831" rx="2" transform="matrix(0.708721 0.705489 -0.708721 0.705489 199.778 399.943)" fill="#191847"/>
<rect x="228.185" y="458.002" width="10.2087" height="169.216" rx="2" transform="rotate(90 228.185 458.002)" fill="#191847"/>
<rect width="10.2322" height="168.831" rx="2" transform="matrix(-0.708721 0.705489 -0.708721 -0.705489 207.03 519.051)" fill="#191847"/>
<path fill-rule="evenodd" clip-rule="evenodd" d="M311.639 274.725L262.474 288.575L274.608 309.664L313.022 287.898C330.794 287.156 339.212 285.55 338.277 283.081C337.488 280.999 335.534 280.612 333.733 280.255C332.331 279.977 331.022 279.717 330.431 278.69C329.081 276.343 334.054 270.387 339.016 264.937C343.977 259.487 340.086 259.159 337.726 259.561C329.581 262.71 320.885 267.764 311.639 274.725ZM85.018 431.55C87.6823 423.515 106.645 322.252 106.645 322.252L134.457 318.449C134.457 318.449 103.13 427.296 101.85 432.403C100.188 439.036 105.791 447.547 109.59 453.318C110.178 454.21 110.722 455.038 111.19 455.782C107.379 458.165 105.118 456.25 102.735 454.232C100.043 451.952 97.1948 449.54 91.779 453.037C89.6866 454.388 87.741 455.911 85.8402 457.399C79.2743 462.539 73.2426 467.26 63.5399 463.03C62.0017 462.359 59.9897 459.302 63.3792 456.216C71.8236 448.528 83.7155 435.479 85.018 431.55Z" fill="#997659"/>
<path fill-rule="evenodd" clip-rule="evenodd" d="M170.452 223.789L192.42 222.173C204.565 269.694 238.047 296.082 301.967 276.572L319.389 337.518C259.395 353.965 202.389 337.146 182.142 272.762C176.9 256.095 172.159 238.649 170.452 223.789Z" fill="#AFB9C5"/>
<path fill-rule="evenodd" clip-rule="evenodd" d="M87.0714 418.493C90.9344 336.334 114.127 269.931 156.649 219.286L158.738 218.992L158.809 218.982L158.829 219L192.863 221.883C198.404 261.315 211.358 289.539 223.811 316.675C229.189 328.393 234.474 339.908 239.029 352.035L149.968 364.552C150.729 379.072 152.031 393.923 153.757 409.121L87.0714 418.493Z" fill="#C5CFD6"/>
<path fill-rule="evenodd" clip-rule="evenodd" d="M149.968 364.552C148.418 334.99 149.107 306.8 153.008 279.845C155.247 307.77 159.616 342.188 168.069 362.008L149.968 364.552Z" fill="black" fill-opacity="0.1"/>
<path fill-rule="evenodd" clip-rule="evenodd" d="M492.54 107.114C484.909 113.076 477.107 116.462 473.187 115.952C463.357 114.674 458.214 80.0319 463.905 65.4272C469.596 50.8226 506.768 40.1974 512.011 67.1056C513.831 76.4445 510.895 85.3389 505.874 92.9188L522.384 140.471L491.847 144.221L492.54 107.114Z" fill="#B28B67"/>
<path fill-rule="evenodd" clip-rule="evenodd" d="M486.831 73.24C483.709 69.6439 480.806 66.9649 477.294 65.6334C463.895 67.4932 462.028 65.2871 461.035 57.2013C463.014 55.3884 470.345 51.8447 478.823 50.0601C483.041 48.2766 488.248 47.8753 493.491 49.3427C499.862 50.3281 505.536 53.4384 508.701 60.1771C518.793 73.487 514.301 89.1837 506.405 95.3269C503.807 92.9263 501.509 90.5731 499.437 88.3046C500.686 86.7485 501.33 84.7118 501.068 82.5782C500.552 78.3754 496.716 75.388 492.5 75.9057C492.19 75.9437 491.886 75.9997 491.59 76.0723C492.046 81.3504 493.448 99.2241 492.155 105.651C490.631 113.228 476.741 116.748 471.82 117.353C467.57 117.875 467.222 113.845 466.973 110.957C466.937 110.541 466.903 110.149 466.86 109.797C466.77 109.062 467.729 108.947 468.812 108.816C470.218 108.646 471.835 108.451 471.637 106.843C471.422 105.09 468.827 104.043 466.504 103.107C465.055 102.523 463.712 101.982 463.12 101.338C461.252 99.3087 460.346 96.3729 462.752 96.0774C464.068 95.9159 465.965 96.4502 468.248 97.093C471.694 98.0634 476.019 99.2811 480.544 98.7255C488.021 97.8075 486.846 73.5447 486.831 73.24Z" fill="#191847"/>
<path fill-rule="evenodd" clip-rule="evenodd" d="M543.912 248.039L496.953 409.338L474.866 530.444H452.697L474.827 248.039H543.912Z" fill="#997659"/>
<path fill-rule="evenodd" clip-rule="evenodd" d="M565.015 248.039C561.739 331.833 563.031 377.536 563.764 385.149C564.498 392.762 568.661 443.749 597.03 532.999H573.973C536.402 447.379 523.286 396.392 518.977 385.149C514.668 373.906 501.942 328.203 483.361 248.039H565.015Z" fill="#B28B67"/>
<path fill-rule="evenodd" clip-rule="evenodd" d="M544.92 248.039C532.705 303.542 511.579 392.14 481.541 513.832H449.117C446.722 388.927 456.91 306.718 474.553 248.039H544.92Z" fill="#69A1AC"/>
<path fill-rule="evenodd" clip-rule="evenodd" d="M565.179 248.039C561.97 331.833 570.286 414.386 596.047 515.136H561.453C523.813 430.794 496.835 348.648 478.397 248.039H565.179Z" fill="#89C5CC"/>
<path fill-rule="evenodd" clip-rule="evenodd" d="M600.317 549.611L599.122 530.414C599.083 529.774 598.46 529.336 597.835 529.479C586.7 532.018 571.056 526.61 571.056 526.61C555.191 537.812 532.12 542.779 524.933 544.114C523.749 544.334 523.002 545.524 523.332 546.682L525.256 553.445H571.056H597.773L600.317 549.611Z" fill="#191847"/>
<path fill-rule="evenodd" clip-rule="evenodd" d="M479.815 549.611L478.62 530.414C478.58 529.774 477.958 529.336 477.333 529.479C466.197 532.018 450.553 526.61 450.553 526.61C434.689 537.812 411.618 542.779 404.431 544.114C403.247 544.334 402.5 545.524 402.829 546.682L404.753 553.445H450.553H477.27L479.815 549.611Z" fill="#191847"/>
<path fill-rule="evenodd" clip-rule="evenodd" d="M398.687 276.21L435.626 241.517L447.313 262.524L409.161 284.072C399.429 298.778 393.754 305.106 392.137 303.059C390.773 301.332 391.445 299.477 392.065 297.768C392.547 296.437 392.997 295.194 392.428 294.171C391.127 291.833 383.524 293.03 376.356 294.473C369.189 295.916 370.904 292.448 372.454 290.649C379.298 285.335 388.043 280.522 398.687 276.21ZM617.961 302.423C613.307 295.341 591.585 223.409 591.585 223.409L565.009 226.778C565.009 226.778 599.366 303 601.924 307.608C605.247 313.593 602.039 323.277 599.865 329.843C599.528 330.859 599.216 331.8 598.957 332.641C603.255 333.958 604.943 331.521 606.723 328.951C608.732 326.049 610.859 322.978 616.996 324.958C619.367 325.723 621.64 326.692 623.862 327.639C631.535 330.91 638.584 333.915 646.86 327.31C648.172 326.262 649.324 322.785 645.25 320.678C635.103 315.428 620.237 305.886 617.961 302.423Z" fill="#B28B67"/>
<path fill-rule="evenodd" clip-rule="evenodd" d="M502.367 121.47L491.133 120.94C454.627 161.104 446.151 230.695 400.506 272.613L414.377 286.015C499.868 264.643 511.27 179.629 502.367 121.47Z" fill="#E87613"/>
<path fill-rule="evenodd" clip-rule="evenodd" d="M567.252 253.407C567.252 253.407 501.078 261.533 469.9 265.361C465.451 265.907 465.504 259.401 465.75 256.091C468.593 217.891 492.629 174.137 486.111 121.057L513.653 113.22C541.452 147.604 555.113 192.463 567.252 253.407Z" fill="#DDE3E9"/>
<path fill-rule="evenodd" clip-rule="evenodd" d="M581.469 278.698C587.13 288.636 592.543 297.249 597.448 303.773L618.326 301.209C611.683 228.535 577.346 176.204 550.209 145.44C555.274 144.449 559.624 141.751 561.896 136.149C569.892 116.429 564.938 106.72 553.559 104.726C547.302 103.629 541.783 105.58 535.177 107.914C529.772 109.825 523.638 111.993 515.775 112.959C515.773 112.959 515.77 112.96 515.768 112.96C515.006 113.054 514.319 113.19 513.701 113.364L504.448 115.038C504.448 115.038 482.309 247.494 504.521 288.146L581.469 278.698Z" fill="#FF9B21"/>
<path fill-rule="evenodd" clip-rule="evenodd" d="M581.469 278.698C574.041 265.66 566.184 250.341 558.485 234.47C558.617 252.973 557.355 271.728 552.709 282.229L581.469 278.698Z" fill="black" fill-opacity="0.1"/>
<path fill-rule="evenodd" clip-rule="evenodd" d="M334.5 224C372.884 224 404 192.884 404 154.5C404 116.116 372.884 85 334.5 85C296.116 85 265 116.116 265 154.5C265 192.884 296.116 224 334.5 224Z" fill="#EAE1A6" fill-opacity="0.8"/>
</svg>
