<svg width="510" height="218" viewBox="0 0 510 218" fill="none" xmlns="http://www.w3.org/2000/svg">
<path d="M505 9V89C505 100.046 496.046 109 485 109H25C13.9543 109 4.99998 117.954 4.99998 129V209" stroke="#F2F4F8" stroke-width="2"/>
<path fill-rule="evenodd" clip-rule="evenodd" d="M505 10C502.239 10 500 7.76142 500 5C500 2.23858 502.239 0 505 0C507.761 0 510 2.23858 510 5C510 7.76142 507.761 10 505 10ZM505 8C503.343 8 502 6.65685 502 5C502 3.34315 503.343 2 505 2C506.657 2 508 3.34315 508 5C508 6.65685 506.657 8 505 8Z" fill="#F2F4F8"/>
<path fill-rule="evenodd" clip-rule="evenodd" d="M5 218C2.23858 218 0 215.761 0 213C0 210.239 2.23858 208 5 208C7.76142 208 10 210.239 10 213C10 215.761 7.76142 218 5 218ZM5 216C3.34315 216 2 214.657 2 213C2 211.343 3.34315 210 5 210C6.65685 210 8 211.343 8 213C8 214.657 6.65685 216 5 216Z" fill="#F2F4F8"/>
</svg>
