<svg width="510" height="218" viewBox="0 0 510 218" fill="none" xmlns="http://www.w3.org/2000/svg">
<path d="M5 9V89C5 100.046 13.9543 109 25 109H485C496.046 109 505 117.954 505 129V209" stroke="#F2F4F8" stroke-width="2"/>
<path fill-rule="evenodd" clip-rule="evenodd" d="M5 10C7.76172 10 10 7.76123 10 5C10 2.23877 7.76172 0 5 0C2.23828 0 0 2.23877 0 5C0 7.76123 2.23828 10 5 10ZM5 8C6.65625 8 8 6.65674 8 5C8 3.34326 6.65625 2 5 2C3.34375 2 2 3.34326 2 5C2 6.65674 3.34375 8 5 8Z" fill="#F2F4F8"/>
<path fill-rule="evenodd" clip-rule="evenodd" d="M505 218C507.761 218 510 215.761 510 213C510 210.239 507.761 208 505 208C502.239 208 500 210.239 500 213C500 215.761 502.239 218 505 218ZM505 216C506.657 216 508 214.657 508 213C508 211.343 506.657 210 505 210C503.343 210 502 211.343 502 213C502 214.657 503.343 216 505 216Z" fill="#F2F4F8"/>
</svg>
