<svg width="30" height="30" viewBox="0 0 30 30" fill="none" xmlns="http://www.w3.org/2000/svg">
<path d="M28.07 6.50724C27.109 6.93392 26.0788 7.2204 24.9959 7.35043C26.1012 6.68807 26.9505 5.63966 27.3487 4.39214C26.3166 5.00371 25.1686 5.44867 23.9515 5.68842C22.9763 4.64814 21.5865 4 20.0485 4C17.0942 4 14.6987 6.39346 14.6987 9.34769C14.6987 9.76624 14.7475 10.1746 14.8389 10.5668C10.3934 10.3433 6.4537 8.21395 3.8144 4.97729C3.35318 5.7697 3.09108 6.68807 3.09108 7.6674C3.09108 9.52243 4.03383 11.1601 5.47031 12.1211C4.59257 12.0927 3.76766 11.8509 3.04638 11.4506C3.04638 11.473 3.04638 11.4953 3.04638 11.5177C3.04638 14.1102 4.89125 16.27 7.3355 16.7638C6.88851 16.8857 6.4151 16.9507 5.92747 16.9507C5.58206 16.9507 5.24681 16.9182 4.91969 16.8532C5.60238 18.9764 7.57729 20.5266 9.91589 20.5693C8.08727 22.0038 5.78118 22.8571 3.27394 22.8571C2.84116 22.8571 2.41652 22.8327 2 22.7819C4.36501 24.3017 7.17702 25.1856 10.1983 25.1856C20.0363 25.1856 25.4165 17.036 25.4165 9.96942C25.4165 9.7378 25.4104 9.50414 25.4022 9.27658C26.4466 8.52278 27.3528 7.58003 28.07 6.50724Z" fill="#070F1A"/>
</svg>
